Lora-Bold.ufo
<glyph name="question" format="2">
  <advance width="503"/>
  <unicode hex="003F"/>
  <outline>
    <contour>
      <point x="237" y="181" type="curve" smooth="yes"/>
      <point x="262" y="181"/>
      <point x="302" y="186"/>
      <point x="335" y="203" type="curve"/>
      <point x="320" y="254" type="line"/>
      <point x="308" y="251"/>
      <point x="298" y="250"/>
      <point x="290" y="250" type="curve" smooth="yes"/>
      <point x="262" y="250"/>
      <point x="250" y="263"/>
      <point x="250" y="280" type="curve" smooth="yes"/>
      <point x="250" y="344"/>
      <point x="458" y="416"/>
      <point x="458" y="557" type="curve" smooth="yes"/>
      <point x="458" y="637"/>
      <point x="404" y="716"/>
      <point x="245" y="716" type="curve" smooth="yes"/>
      <point x="125" y="716"/>
      <point x="37" y="639"/>
      <point x="37" y="568" type="curve" smooth="yes"/>
      <point x="37" y="528"/>
      <point x="57" y="499"/>
      <point x="100" y="497" type="curve" smooth="yes"/>
      <point x="148" y="494"/>
      <point x="168" y="539"/>
      <point x="168" y="564" type="curve" smooth="yes"/>
      <point x="168" y="578"/>
      <point x="164" y="601"/>
      <point x="150" y="614" type="curve"/>
      <point x="163" y="629"/>
      <point x="193" y="646"/>
      <point x="226" y="646" type="curve" smooth="yes"/>
      <point x="293" y="646"/>
      <point x="312" y="599"/>
      <point x="312" y="537" type="curve" smooth="yes"/>
      <point x="312" y="461"/>
      <point x="278" y="419"/>
      <point x="231" y="373" type="curve" smooth="yes"/>
      <point x="164" y="306"/>
      <point x="150" y="283"/>
      <point x="150" y="250" type="curve" smooth="yes"/>
      <point x="150" y="200"/>
      <point x="194" y="181"/>
    </contour>
    <contour>
      <point x="247" y="-16" type="curve" smooth="yes"/>
      <point x="285" y="-16"/>
      <point x="320" y="19"/>
      <point x="320" y="62" type="curve" smooth="yes"/>
      <point x="320" y="105"/>
      <point x="289" y="140"/>
      <point x="248" y="140" type="curve" smooth="yes"/>
      <point x="209" y="140"/>
      <point x="175" y="105"/>
      <point x="175" y="62" type="curve" smooth="yes"/>
      <point x="175" y="19"/>
      <point x="208" y="-16"/>
    </contour>
  </outline>
</glyph>
<glyph name="D" format="2">
  <advance width="759"/>
  <unicode hex="0044"/>
  <anchor x="380" y="350" name="center"/>
  <anchor x="360" y="700" name="top"/>
  <outline>
    <contour>
      <point x="50" y="66" type="curve"/>
      <point x="50" y="0" type="line"/>
      <point x="336" y="0" type="line" smooth="yes"/>
      <point x="616" y="0"/>
      <point x="724" y="194"/>
      <point x="724" y="357" type="curve" smooth="yes"/>
      <point x="724" y="523"/>
      <point x="605" y="702"/>
      <point x="341" y="701" type="curve" smooth="yes"/>
      <point x="50" y="700" type="line"/>
      <point x="50" y="623" type="line"/>
      <point x="64" y="624"/>
      <point x="104" y="625"/>
      <point x="125" y="626" type="curve"/>
      <point x="123" y="609"/>
      <point x="121" y="572"/>
      <point x="121" y="536" type="curve" smooth="yes"/>
      <point x="121" y="153" type="line" smooth="yes"/>
      <point x="121" y="72"/>
      <point x="95" y="68"/>
    </contour>
    <contour>
      <point x="266" y="164" type="curve" smooth="yes"/>
      <point x="266" y="549" type="line" smooth="yes"/>
      <point x="266" y="626"/>
      <point x="290" y="636"/>
      <point x="339" y="634" type="curve" smooth="yes"/>
      <point x="478" y="630"/>
      <point x="566" y="540"/>
      <point x="566" y="336" type="curve" smooth="yes"/>
      <point x="566" y="203"/>
      <point x="503" y="73"/>
      <point x="357" y="73" type="curve" smooth="yes"/>
      <point x="333" y="73"/>
      <point x="281" y="76"/>
      <point x="262" y="74" type="curve"/>
      <point x="264" y="91"/>
      <point x="266" y="128"/>
    </contour>
  </outline>
</glyph>
<glyph name="M" format="2">
  <advance width="972"/>
  <unicode hex="004D"/>
  <anchor x="486" y="0" name="bottom"/>
  <anchor x="486" y="700" name="top"/>
  <outline>
    <contour>
      <point x="408" y="-10" type="curve"/>
      <point x="501" y="-10" type="line"/>
      <point x="696" y="511" type="line"/>
      <point x="699" y="520"/>
      <point x="703" y="529"/>
      <point x="707" y="538" type="curve"/>
      <point x="709" y="477"/>
      <point x="714" y="389"/>
      <point x="715" y="365" type="curve" smooth="yes"/>
      <point x="723" y="153" type="line" smooth="yes"/>
      <point x="726" y="72"/>
      <point x="697" y="68"/>
      <point x="652" y="66" type="curve"/>
      <point x="652" y="0" type="line"/>
      <point x="930" y="0" type="line"/>
      <point x="930" y="77" type="line"/>
      <point x="916" y="77"/>
      <point x="876" y="76"/>
      <point x="854" y="74" type="curve"/>
      <point x="857" y="91"/>
      <point x="860" y="128"/>
      <point x="858" y="164" type="curve" smooth="yes"/>
      <point x="843" y="547" type="line" smooth="yes"/>
      <point x="840" y="628"/>
      <point x="870" y="632"/>
      <point x="915" y="634" type="curve"/>
      <point x="915" y="700" type="line"/>
      <point x="684" y="700" type="line"/>
      <point x="632" y="562"/>
      <point x="581" y="425"/>
      <point x="529" y="287" type="curve" smooth="yes"/>
      <point x="513" y="245"/>
      <point x="499" y="201"/>
      <point x="482" y="155" type="curve"/>
      <point x="481" y="155" type="line"/>
      <point x="471" y="189"/>
      <point x="443" y="267"/>
      <point x="425" y="313" type="curve" smooth="yes"/>
      <point x="274" y="700" type="line"/>
      <point x="53" y="700" type="line"/>
      <point x="53" y="623" type="line"/>
      <point x="67" y="624"/>
      <point x="107" y="625"/>
      <point x="128" y="626" type="curve"/>
      <point x="126" y="609"/>
      <point x="125" y="572"/>
      <point x="124" y="536" type="curve" smooth="yes"/>
      <point x="118" y="153" type="line" smooth="yes"/>
      <point x="117" y="72"/>
      <point x="92" y="68"/>
      <point x="47" y="66" type="curve"/>
      <point x="47" y="0" type="line"/>
      <point x="275" y="0" type="line"/>
      <point x="275" y="77" type="line"/>
      <point x="261" y="77"/>
      <point x="221" y="76"/>
      <point x="199" y="74" type="curve"/>
      <point x="202" y="91"/>
      <point x="204" y="128"/>
      <point x="204" y="164" type="curve" smooth="yes"/>
      <point x="204" y="224"/>
      <point x="205" y="285"/>
      <point x="205" y="345" type="curve" smooth="yes"/>
      <point x="206" y="405"/>
      <point x="204" y="470"/>
      <point x="202" y="545" type="curve"/>
      <point x="224" y="449"/>
      <point x="257" y="356"/>
      <point x="273" y="319" type="curve" smooth="yes"/>
      <point x="318" y="209"/>
      <point x="363" y="100"/>
    </contour>
  </outline>
</glyph>
<glyph name="Q" format="2">
  <advance width="770"/>
  <unicode hex="0051"/>
  <outline>
    <contour>
      <point x="751" y="-218" type="curve" smooth="yes"/>
      <point x="794" y="-218" type="line"/>
      <point x="794" y="-151" type="line"/>
      <point x="750" y="-151"/>
      <point x="746" y="-137"/>
      <point x="653" y="-51" type="curve" smooth="yes"/>
      <point x="601" y="-2"/>
      <point x="566" y="5"/>
      <point x="509" y="5" type="curve"/>
      <point x="659" y="63"/>
      <point x="734" y="217"/>
      <point x="734" y="350" type="curve" smooth="yes"/>
      <point x="734" y="517"/>
      <point x="630" y="716"/>
      <point x="387" y="716" type="curve" smooth="yes"/>
      <point x="150" y="716"/>
      <point x="36" y="518"/>
      <point x="36" y="350" type="curve" smooth="yes"/>
      <point x="36" y="178"/>
      <point x="128" y="-16"/>
      <point x="374" y="-16" type="curve" smooth="yes"/>
      <point x="457" y="-16"/>
      <point x="494" y="-89"/>
      <point x="579" y="-164" type="curve" smooth="yes"/>
      <point x="635" y="-213"/>
      <point x="659" y="-218"/>
    </contour>
    <contour>
      <point x="394" y="57" type="curve" smooth="yes"/>
      <point x="243" y="56"/>
      <point x="193" y="237"/>
      <point x="193" y="362" type="curve" smooth="yes"/>
      <point x="193" y="485"/>
      <point x="236" y="640"/>
      <point x="374" y="643" type="curve" smooth="yes"/>
      <point x="513" y="646"/>
      <point x="577" y="516"/>
      <point x="577" y="333" type="curve" smooth="yes"/>
      <point x="577" y="210"/>
      <point x="532" y="58"/>
    </contour>
  </outline>
</glyph>
<glyph name="V" format="2">
  <advance width="708"/>
  <unicode hex="0056"/>
  <outline>
    <contour>
      <point x="320" y="-6" type="line"/>
      <point x="402" y="-6" type="line"/>
      <point x="469" y="172"/>
      <point x="535" y="349"/>
      <point x="602" y="527" type="curve" smooth="yes"/>
      <point x="631" y="604"/>
      <point x="663" y="632"/>
      <point x="708" y="634" type="curve"/>
      <point x="708" y="700" type="line"/>
      <point x="483" y="700" type="line"/>
      <point x="483" y="623" type="line"/>
      <point x="497" y="624"/>
      <point x="538" y="625"/>
      <point x="560" y="626" type="curve"/>
      <point x="542" y="605"/>
      <point x="526" y="557"/>
      <point x="519" y="535" type="curve" smooth="yes"/>
      <point x="494" y="465"/>
      <point x="468" y="396"/>
      <point x="443" y="326" type="curve" smooth="yes"/>
      <point x="427" y="280"/>
      <point x="409" y="228"/>
      <point x="395" y="188" type="curve"/>
      <point x="394" y="188" type="line"/>
      <point x="373" y="239"/>
      <point x="360" y="275"/>
      <point x="337" y="331" type="curve" smooth="yes"/>
      <point x="306" y="406"/>
      <point x="276" y="482"/>
      <point x="245" y="557" type="curve" smooth="yes"/>
      <point x="221" y="616"/>
      <point x="253" y="635"/>
      <point x="303" y="634" type="curve"/>
      <point x="303" y="700" type="line"/>
      <point x="8" y="700" type="line"/>
      <point x="8" y="623" type="line"/>
      <point x="22" y="624"/>
      <point x="40" y="625"/>
      <point x="62" y="626" type="curve"/>
      <point x="62" y="604"/>
      <point x="76" y="564"/>
      <point x="90" y="531" type="curve" smooth="yes"/>
    </contour>
  </outline>
</glyph>
<glyph name="X" format="2">
  <advance width="699"/>
  <unicode hex="0058"/>
  <outline>
    <contour>
      <point x="35" y="0" type="line"/>
      <point x="255" y="0" type="line"/>
      <point x="255" y="77" type="line"/>
      <point x="241" y="77"/>
      <point x="206" y="75"/>
      <point x="184" y="74" type="curve"/>
      <point x="200" y="90"/>
      <point x="211" y="104"/>
      <point x="239" y="142" type="curve" smooth="yes"/>
      <point x="268" y="182"/>
      <point x="298" y="223"/>
      <point x="327" y="263" type="curve"/>
      <point x="362" y="220"/>
      <point x="395" y="177"/>
      <point x="429" y="134" type="curve" smooth="yes"/>
      <point x="459" y="96"/>
      <point x="469" y="66"/>
      <point x="396" y="66" type="curve"/>
      <point x="396" y="0" type="line"/>
      <point x="695" y="0" type="line"/>
      <point x="695" y="77" type="line"/>
      <point x="681" y="77"/>
      <point x="676" y="76"/>
      <point x="654" y="74" type="curve"/>
      <point x="644" y="96"/>
      <point x="625" y="122"/>
      <point x="602" y="150" type="curve" smooth="yes"/>
      <point x="539" y="230"/>
      <point x="477" y="310"/>
      <point x="414" y="390" type="curve"/>
      <point x="510" y="521" type="line" smooth="yes"/>
      <point x="563" y="594"/>
      <point x="605" y="628"/>
      <point x="651" y="634" type="curve"/>
      <point x="651" y="700" type="line"/>
      <point x="424" y="700" type="line"/>
      <point x="424" y="623" type="line"/>
      <point x="438" y="624"/>
      <point x="477" y="625"/>
      <point x="499" y="626" type="curve"/>
      <point x="481" y="610"/>
      <point x="468" y="596"/>
      <point x="440" y="558" type="curve" smooth="yes"/>
      <point x="364" y="453" type="line"/>
      <point x="334" y="491"/>
      <point x="305" y="528"/>
      <point x="275" y="566" type="curve" smooth="yes"/>
      <point x="245" y="604"/>
      <point x="245" y="634"/>
      <point x="308" y="634" type="curve"/>
      <point x="318" y="634" type="line"/>
      <point x="318" y="700" type="line"/>
      <point x="14" y="700" type="line"/>
      <point x="14" y="623" type="line"/>
      <point x="28" y="624"/>
      <point x="42" y="625"/>
      <point x="64" y="626" type="curve"/>
      <point x="74" y="597"/>
      <point x="92" y="560"/>
      <point x="114" y="532" type="curve" smooth="yes"/>
      <point x="168" y="464"/>
      <point x="221" y="396"/>
      <point x="275" y="328" type="curve"/>
      <point x="159" y="173" type="line" smooth="yes"/>
      <point x="110" y="107"/>
      <point x="73" y="75"/>
      <point x="35" y="66" type="curve"/>
    </contour>
  </outline>
</glyph>
<glyph name="asciicircum" format="2">
  <advance width="823"/>
  <unicode hex="005E"/>
  <outline>
    <contour>
      <point x="626" y="437" type="line"/>
      <point x="763" y="437" type="line"/>
      <point x="457" y="716" type="line"/>
      <point x="368" y="716" type="line"/>
      <point x="60" y="441" type="line"/>
      <point x="191" y="441" type="line"/>
      <point x="408" y="643" type="line"/>
    </contour>
  </outline>
</glyph>
<glyph name="underscore" format="2">
  <advance width="832"/>
  <unicode hex="005F"/>
  <outline>
    <contour>
      <point x="108" y="-155" type="line"/>
      <point x="723" y="-155" type="line"/>
      <point x="723" y="-54" type="line"/>
      <point x="108" y="-50" type="line"/>
    </contour>
  </outline>
</glyph>
<glyph name="d" format="2">
  <advance width="596"/>
  <unicode hex="0064"/>
  <anchor x="298" y="250" name="center"/>
  <anchor x="586" y="500" name="topright"/>
  <outline>
    <contour>
      <point x="234" y="-16" type="curve" smooth="yes"/>
      <point x="284" y="-16"/>
      <point x="331" y="0"/>
      <point x="375" y="46" type="curve"/>
      <point x="377" y="31"/>
      <point x="379" y="15"/>
      <point x="381" y="0" type="curve"/>
      <point x="571" y="0" type="line"/>
      <point x="571" y="76" type="line"/>
      <point x="557" y="76"/>
      <point x="528" y="75"/>
      <point x="506" y="73" type="curve"/>
      <point x="509" y="103"/>
      <point x="510" y="142"/>
      <point x="510" y="161" type="curve" smooth="yes"/>
      <point x="510" y="755" type="line"/>
      <point x="456" y="755" type="line"/>
      <point x="442" y="742"/>
      <point x="395" y="725"/>
      <point x="302" y="725" type="curve"/>
      <point x="302" y="649" type="line"/>
      <point x="316" y="649"/>
      <point x="351" y="650"/>
      <point x="373" y="652" type="curve"/>
      <point x="370" y="622"/>
      <point x="369" y="583"/>
      <point x="369" y="564" type="curve" smooth="yes"/>
      <point x="369" y="498" type="line"/>
      <point x="344" y="507"/>
      <point x="316" y="516"/>
      <point x="280" y="516" type="curve" smooth="yes"/>
      <point x="131" y="516"/>
      <point x="32" y="398"/>
      <point x="32" y="237" type="curve" smooth="yes"/>
      <point x="32" y="83"/>
      <point x="114" y="-16"/>
    </contour>
    <contour>
      <point x="286" y="75" type="curve" smooth="yes"/>
      <point x="209" y="75"/>
      <point x="179" y="167"/>
      <point x="179" y="252" type="curve" smooth="yes"/>
      <point x="179" y="346"/>
      <point x="206" y="440"/>
      <point x="298" y="442" type="curve" smooth="yes"/>
      <point x="326" y="442"/>
      <point x="355" y="433"/>
      <point x="369" y="423" type="curve"/>
      <point x="369" y="183" type="line"/>
      <point x="369" y="163"/>
      <point x="369" y="143"/>
      <point x="369" y="123" type="curve"/>
      <point x="351" y="95"/>
      <point x="320" y="75"/>
    </contour>
  </outline>
</glyph>
<glyph name="n" format="2">
  <advance width="636"/>
  <unicode hex="006E"/>
  <anchor x="357" y="0" name="bottom"/>
  <anchor x="344" y="500" name="top"/>
  <outline>
    <contour>
      <point x="41" y="0" type="line"/>
      <point x="303" y="0" type="line"/>
      <point x="303" y="76" type="line"/>
      <point x="289" y="76"/>
      <point x="259" y="75"/>
      <point x="238" y="73" type="curve"/>
      <point x="241" y="103"/>
      <point x="242" y="142"/>
      <point x="242" y="161" type="curve" smooth="yes"/>
      <point x="242" y="330" type="line"/>
      <point x="242" y="349"/>
      <point x="242" y="368"/>
      <point x="242" y="387" type="curve"/>
      <point x="264" y="407"/>
      <point x="300" y="424"/>
      <point x="333" y="424" type="curve" smooth="yes"/>
      <point x="392" y="424"/>
      <point x="414" y="383"/>
      <point x="414" y="296" type="curve" smooth="yes"/>
      <point x="415" y="154" type="line" smooth="yes"/>
      <point x="415" y="101"/>
      <point x="411" y="65"/>
      <point x="355" y="65" type="curve"/>
      <point x="355" y="0" type="line"/>
      <point x="617" y="0" type="line"/>
      <point x="617" y="76" type="line"/>
      <point x="603" y="76"/>
      <point x="574" y="75"/>
      <point x="552" y="73" type="curve"/>
      <point x="555" y="103"/>
      <point x="556" y="142"/>
      <point x="556" y="161" type="curve" smooth="yes"/>
      <point x="556" y="295" type="line" smooth="yes"/>
      <point x="556" y="449"/>
      <point x="509" y="516"/>
      <point x="387" y="516" type="curve" smooth="yes"/>
      <point x="347" y="516"/>
      <point x="282" y="491"/>
      <point x="243" y="460" type="curve"/>
      <point x="237" y="487"/>
      <point x="241" y="484"/>
      <point x="237" y="510" type="curve"/>
      <point x="188" y="510" type="line"/>
      <point x="174" y="497"/>
      <point x="126" y="480"/>
      <point x="34" y="480" type="curve"/>
      <point x="34" y="404" type="line"/>
      <point x="48" y="405"/>
      <point x="83" y="406"/>
      <point x="104" y="407" type="curve"/>
      <point x="101" y="377"/>
      <point x="100" y="346"/>
      <point x="100" y="322" type="curve" smooth="yes"/>
      <point x="100" y="154" type="line" smooth="yes"/>
      <point x="100" y="101"/>
      <point x="96" y="65"/>
      <point x="41" y="65" type="curve"/>
    </contour>
  </outline>
</glyph>
<glyph name="t" format="2">
  <advance width="413"/>
  <unicode hex="0074"/>
  <anchor x="247" y="0" name="bottom"/>
  <anchor x="207" y="250" name="center"/>
  <outline>
    <contour>
      <point x="239" y="-16" type="curve" smooth="yes"/>
      <point x="261" y="-16"/>
      <point x="353" y="-14"/>
      <point x="425" y="92" type="curve"/>
      <point x="377" y="137" type="line"/>
      <point x="339" y="84"/>
      <point x="305" y="77"/>
      <point x="286" y="77" type="curve" smooth="yes"/>
      <point x="236" y="77"/>
      <point x="226" y="128"/>
      <point x="226" y="174" type="curve"/>
      <point x="227" y="420" type="line"/>
      <point x="354" y="423" type="line"/>
      <point x="354" y="500" type="line"/>
      <point x="227" y="500" type="line"/>
      <point x="228" y="640" type="line"/>
      <point x="154" y="640" type="line"/>
      <point x="140" y="569"/>
      <point x="79" y="501"/>
      <point x="17" y="500" type="curve"/>
      <point x="17" y="417" type="line"/>
      <point x="85" y="417" type="line"/>
      <point x="83" y="176" type="line" smooth="yes"/>
      <point x="83" y="9"/>
      <point x="160" y="-16"/>
    </contour>
  </outline>
</glyph>
<glyph name="v" format="2">
  <advance width="538"/>
  <unicode hex="0076"/>
  <outline>
    <contour>
      <point x="227" y="-3" type="line"/>
      <point x="314" y="-3" type="line"/>
      <point x="442" y="316" type="line" smooth="yes"/>
      <point x="458" y="356"/>
      <point x="488" y="428"/>
      <point x="535" y="436" type="curve"/>
      <point x="535" y="500" type="line"/>
      <point x="345" y="500" type="line"/>
      <point x="345" y="424" type="line"/>
      <point x="407" y="428" type="line"/>
      <point x="395" y="407"/>
      <point x="386" y="390"/>
      <point x="374" y="357" type="curve" smooth="yes"/>
      <point x="331" y="235" type="line"/>
      <point x="321" y="207"/>
      <point x="311" y="179"/>
      <point x="301" y="151" type="curve"/>
      <point x="300" y="151" type="line"/>
      <point x="289" y="177"/>
      <point x="279" y="204"/>
      <point x="268" y="230" type="curve"/>
      <point x="216" y="358" type="line" smooth="yes"/>
      <point x="202" y="398"/>
      <point x="198" y="434"/>
      <point x="240" y="436" type="curve"/>
      <point x="240" y="500" type="line"/>
      <point x="6" y="500" type="line"/>
      <point x="6" y="424" type="line"/>
      <point x="43" y="426" type="line"/>
      <point x="48" y="402"/>
      <point x="47" y="393"/>
      <point x="69" y="344" type="curve" smooth="yes"/>
    </contour>
  </outline>
</glyph>
<glyph name="dieresis" format="2">
  <advance width="427"/>
  <unicode hex="00A8"/>
  <anchor x="213" y="500" name="_top"/>
  <outline>
    <contour>
      <point x="300" y="600" type="curve" smooth="yes"/>
      <point x="336" y="600"/>
      <point x="367" y="633"/>
      <point x="367" y="675" type="curve" smooth="yes"/>
      <point x="367" y="716"/>
      <point x="339" y="751"/>
      <point x="301" y="751" type="curve" smooth="yes"/>
      <point x="265" y="751"/>
      <point x="234" y="716"/>
      <point x="234" y="675" type="curve" smooth="yes"/>
      <point x="234" y="633"/>
      <point x="264" y="600"/>
    </contour>
    <contour>
      <point x="126" y="600" type="curve" smooth="yes"/>
      <point x="162" y="600"/>
      <point x="193" y="633"/>
      <point x="193" y="675" type="curve" smooth="yes"/>
      <point x="193" y="716"/>
      <point x="165" y="751"/>
      <point x="127" y="751" type="curve" smooth="yes"/>
      <point x="91" y="751"/>
      <point x="60" y="716"/>
      <point x="60" y="675" type="curve" smooth="yes"/>
      <point x="60" y="633"/>
      <point x="90" y="600"/>
    </contour>
  </outline>
</glyph>
<glyph name="paragraph" format="2">
  <advance width="573"/>
  <unicode hex="00B6"/>
  <outline>
    <contour>
      <point x="166" y="-255" type="line"/>
      <point x="278" y="-255" type="line"/>
      <point x="280" y="630" type="line"/>
      <point x="374" y="631" type="line"/>
      <point x="372" y="-255" type="line"/>
      <point x="483" y="-255" type="line"/>
      <point x="485" y="700" type="line"/>
      <point x="193" y="700" type="line" smooth="yes"/>
      <point x="116" y="700"/>
      <point x="41" y="652"/>
      <point x="41" y="549" type="curve" smooth="yes"/>
      <point x="41" y="450"/>
      <point x="104" y="413"/>
      <point x="168" y="401" type="curve"/>
    </contour>
  </outline>
</glyph>
<glyph name="Eth" format="2">
  <advance width="759"/>
  <unicode hex="00D0"/>
  <outline>
    <contour>
      <point x="30" y="312" type="line"/>
      <point x="421" y="316" type="line"/>
      <point x="421" y="391" type="line"/>
      <point x="30" y="391" type="line"/>
    </contour>
    <component base="D" xOffset="1"/>
  </outline>
</glyph>
<glyph name="multiply" format="2">
  <advance width="530"/>
  <unicode hex="00D7"/>
  <outline>
    <contour>
      <point x="135" y="545" type="line"/>
      <point x="80" y="490" type="line"/>
      <point x="395" y="175" type="line"/>
      <point x="450" y="230" type="line"/>
    </contour>
    <contour>
      <point x="450" y="491" type="line"/>
      <point x="396" y="545" type="line"/>
      <point x="80" y="229" type="line"/>
      <point x="134" y="175" type="line"/>
    </contour>
  </outline>
</glyph>
<glyph name="Oslash" format="2">
  <advance width="769"/>
  <unicode hex="00D8"/>
  <anchor x="384" y="0" name="bottom"/>
  <anchor x="384" y="700" name="top"/>
  <outline>
    <contour>
      <point x="595" y="786" type="line"/>
      <point x="109" y="-49" type="line"/>
      <point x="184" y="-99" type="line"/>
      <point x="675" y="737" type="line"/>
    </contour>
    <component base="O"/>
  </outline>
</glyph>
<glyph name="hbar" format="2">
  <advance width="621"/>
  <unicode hex="0127"/>
  <outline>
    <contour>
      <point x="22" y="555" type="line"/>
      <point x="357" y="559" type="line"/>
      <point x="357" y="608" type="line"/>
      <point x="22" y="608" type="line"/>
    </contour>
    <component base="h"/>
  </outline>
</glyph>
<glyph name="idotless" format="2">
  <advance width="327"/>
  <unicode hex="0131"/>
  <anchor x="164" y="0" name="bottom"/>
  <anchor x="294" y="10" name="ogonek"/>
  <anchor x="164" y="500" name="top"/>
  <outline>
    <contour>
      <point x="41" y="65" type="curve"/>
      <point x="41" y="0" type="line"/>
      <point x="303" y="0" type="line"/>
      <point x="303" y="76" type="line"/>
      <point x="289" y="76"/>
      <point x="259" y="75"/>
      <point x="238" y="73" type="curve"/>
      <point x="241" y="103"/>
      <point x="242" y="142"/>
      <point x="242" y="161" type="curve" smooth="yes"/>
      <point x="242" y="510" type="line"/>
      <point x="188" y="510" type="line"/>
      <point x="174" y="497"/>
      <point x="126" y="480"/>
      <point x="34" y="480" type="curve"/>
      <point x="34" y="404" type="line"/>
      <point x="48" y="405"/>
      <point x="83" y="406"/>
      <point x="104" y="407" type="curve"/>
      <point x="101" y="377"/>
      <point x="100" y="344"/>
      <point x="100" y="320" type="curve" smooth="yes"/>
      <point x="100" y="154" type="line" smooth="yes"/>
      <point x="100" y="101"/>
      <point x="96" y="65"/>
    </contour>
  </outline>
</glyph>
<glyph name="Eng" format="2">
  <advance width="773"/>
  <unicode hex="014A"/>
  <guideline x="582" y="512" angle="90"/>
  <outline>
    <contour>
      <point x="512" y="-271" type="curve" smooth="yes"/>
      <point x="600" y="-271"/>
      <point x="667" y="-183"/>
      <point x="667" y="2" type="curve" smooth="yes"/>
      <point x="667" y="109" type="line"/>
      <point x="582" y="109" type="line"/>
      <point x="582" y="-126" type="line" smooth="yes"/>
      <point x="582" y="-149"/>
      <point x="579" y="-172"/>
      <point x="569" y="-186" type="curve" smooth="yes"/>
      <point x="563" y="-195"/>
      <point x="554" y="-201"/>
      <point x="542" y="-201" type="curve" smooth="yes"/>
      <point x="534" y="-201"/>
      <point x="528" y="-199"/>
      <point x="525" y="-197" type="curve"/>
      <point x="526" y="-191"/>
      <point x="527" y="-185"/>
      <point x="527" y="-180" type="curve" smooth="yes"/>
      <point x="527" y="-145"/>
      <point x="502" y="-120"/>
      <point x="466" y="-121" type="curve" smooth="yes"/>
      <point x="426" y="-122"/>
      <point x="403" y="-154"/>
      <point x="403" y="-189" type="curve" smooth="yes"/>
      <point x="403" y="-230"/>
      <point x="437" y="-271"/>
    </contour>
    <component base="N"/>
  </outline>
</glyph>
<glyph name="tcaron" format="2">
  <advance width="413"/>
  <unicode hex="0165"/>
  <outline>
    <contour>
      <point x="239" y="-16" type="curve" smooth="yes"/>
      <point x="261" y="-16"/>
      <point x="353" y="-14"/>
      <point x="425" y="92" type="curve"/>
      <point x="377" y="137" type="line"/>
      <point x="339" y="84"/>
      <point x="305" y="77"/>
      <point x="286" y="77" type="curve" smooth="yes"/>
      <point x="236" y="77"/>
      <point x="226" y="128"/>
      <point x="226" y="174" type="curve"/>
      <point x="227" y="420" type="line"/>
      <point x="354" y="423" type="line"/>
      <point x="354" y="500" type="line"/>
      <point x="227" y="500" type="line"/>
      <point x="228" y="640" type="line"/>
      <point x="154" y="640" type="line"/>
      <point x="140" y="569"/>
      <point x="79" y="501"/>
      <point x="17" y="500" type="curve"/>
      <point x="17" y="417" type="line"/>
      <point x="85" y="417" type="line"/>
      <point x="83" y="176" type="line" smooth="yes"/>
      <point x="83" y="9"/>
      <point x="160" y="-16"/>
    </contour>
    <contour>
      <point x="319" y="553" type="line"/>
      <point x="366" y="599"/>
      <point x="410" y="662"/>
      <point x="410" y="728" type="curve" smooth="yes"/>
      <point x="410" y="745"/>
      <point x="406" y="758"/>
      <point x="396" y="778" type="curve"/>
      <point x="307" y="795" type="line"/>
      <point x="324" y="731"/>
      <point x="329" y="672"/>
      <point x="280" y="582" type="curve"/>
    </contour>
  </outline>
</glyph>
<glyph name="tbar" format="2">
  <advance width="413"/>
  <unicode hex="0167"/>
  <outline>
    <contour>
      <point x="31" y="275" type="line"/>
      <point x="346" y="279" type="line"/>
      <point x="346" y="328" type="line"/>
      <point x="31" y="328" type="line"/>
    </contour>
    <component base="t"/>
  </outline>
</glyph>
<glyph name="circumflex" format="2">
  <advance width="429"/>
  <unicode hex="02C6"/>
  <anchor x="215" y="500" name="_top"/>
  <outline>
    <contour>
      <point x="342" y="562" type="line"/>
      <point x="385" y="613" type="line"/>
      <point x="225" y="783" type="line"/>
      <point x="215" y="783" type="line"/>
      <point x="44" y="617" type="line"/>
      <point x="86" y="569" type="line"/>
      <point x="214" y="667" type="line"/>
      <point x="215" y="667" type="line"/>
    </contour>
  </outline>
</glyph>
<glyph name="dotaccentcomb" format="2">
  <unicode hex="0307"/>
  <anchor x="120" y="500" name="_top"/>
  <anchor x="120" y="753" name="top"/>
  <outline>
    <contour>
      <point x="122" y="589" type="curve" smooth="yes"/>
      <point x="167" y="589"/>
      <point x="196" y="626"/>
      <point x="196" y="671" type="curve" smooth="yes"/>
      <point x="196" y="716"/>
      <point x="164" y="753"/>
      <point x="121" y="753" type="curve" smooth="yes"/>
      <point x="80" y="753"/>
      <point x="44" y="716"/>
      <point x="44" y="671" type="curve" smooth="yes"/>
      <point x="44" y="626"/>
      <point x="76" y="589"/>
    </contour>
  </outline>
</glyph>
<glyph name="hookabovecomb" format="2">
  <unicode hex="0309"/>
  <anchor x="292" y="500" name="_top"/>
  <anchor x="292" y="770" name="top"/>
  <outline>
    <contour>
      <point x="272" y="559" type="curve"/>
      <point x="334" y="559" type="line"/>
      <point x="334" y="571"/>
      <point x="345" y="585"/>
      <point x="361" y="598" type="curve" smooth="yes"/>
      <point x="382" y="611"/>
      <point x="403" y="628"/>
      <point x="403" y="664" type="curve" smooth="yes"/>
      <point x="403" y="721"/>
      <point x="357" y="757"/>
      <point x="278" y="757" type="curve" smooth="yes"/>
      <point x="207" y="757"/>
      <point x="166" y="708"/>
      <point x="166" y="663" type="curve" smooth="yes"/>
      <point x="166" y="635"/>
      <point x="187" y="612"/>
      <point x="218" y="612" type="curve" smooth="yes"/>
      <point x="241" y="612"/>
      <point x="253" y="628"/>
      <point x="253" y="643" type="curve" smooth="yes"/>
      <point x="253" y="657"/>
      <point x="243" y="670"/>
      <point x="223" y="670" type="curve"/>
      <point x="225" y="679"/>
      <point x="240" y="697"/>
      <point x="278" y="697" type="curve" smooth="yes"/>
      <point x="306" y="697"/>
      <point x="328" y="683"/>
      <point x="328" y="655" type="curve" smooth="yes"/>
      <point x="328" y="638"/>
      <point x="320" y="626"/>
      <point x="311" y="616" type="curve" smooth="yes"/>
      <point x="294" y="599"/>
      <point x="272" y="587"/>
    </contour>
  </outline>
</glyph>
<glyph name="Delta" format="2">
  <advance width="697"/>
  <unicode hex="0394"/>
  <outline>
    <contour>
      <point x="29" y="0" type="line"/>
      <point x="670" y="0" type="line"/>
      <point x="380" y="716" type="line"/>
      <point x="302" y="716" type="line"/>
    </contour>
    <contour>
      <point x="511" y="70" type="line"/>
      <point x="133" y="71" type="line"/>
      <point x="316" y="561" type="line"/>
    </contour>
  </outline>
</glyph>
<glyph name="Lje-cy" format="2">
  <advance width="1035"/>
  <unicode hex="0409"/>
  <outline>
    <contour>
      <point x="140" y="-16" type="curve" smooth="yes"/>
      <point x="258" y="-16"/>
      <point x="364" y="132"/>
      <point x="374" y="563" type="curve" smooth="yes"/>
      <point x="375" y="607"/>
      <point x="396" y="621"/>
      <point x="441" y="622" type="curve" smooth="yes"/>
      <point x="522" y="624" type="line"/>
      <point x="522" y="153" type="line" smooth="yes"/>
      <point x="522" y="72"/>
      <point x="496" y="68"/>
      <point x="451" y="66" type="curve"/>
      <point x="451" y="0" type="line"/>
      <point x="767" y="0" type="line" smooth="yes"/>
      <point x="907" y="0"/>
      <point x="1010" y="69"/>
      <point x="1010" y="199" type="curve" smooth="yes"/>
      <point x="1010" y="305"/>
      <point x="961" y="418"/>
      <point x="722" y="409" type="curve" smooth="yes"/>
      <point x="667" y="407" type="line"/>
      <point x="667" y="547" type="line" smooth="yes"/>
      <point x="667" y="628"/>
      <point x="693" y="632"/>
      <point x="738" y="634" type="curve"/>
      <point x="738" y="700" type="line"/>
      <point x="185" y="700" type="line"/>
      <point x="185" y="623" type="line"/>
      <point x="275" y="625" type="line"/>
      <point x="300" y="626" type="line"/>
      <point x="297" y="510" type="line" smooth="yes"/>
      <point x="289" y="192"/>
      <point x="213" y="65"/>
      <point x="177" y="65" type="curve" smooth="yes"/>
      <point x="171" y="65"/>
      <point x="165" y="66"/>
      <point x="162" y="68" type="curve"/>
      <point x="168" y="76"/>
      <point x="170" y="83"/>
      <point x="170" y="96" type="curve" smooth="yes"/>
      <point x="170" y="132"/>
      <point x="150" y="161"/>
      <point x="103" y="161" type="curve" smooth="yes"/>
      <point x="46" y="161"/>
      <point x="21" y="120"/>
      <point x="21" y="73" type="curve" smooth="yes"/>
      <point x="21" y="16"/>
      <point x="68" y="-16"/>
    </contour>
    <contour>
      <point x="663" y="71" type="curve"/>
      <point x="665" y="88"/>
      <point x="667" y="123"/>
      <point x="667" y="159" type="curve" smooth="yes"/>
      <point x="667" y="335" type="line"/>
      <point x="686" y="337"/>
      <point x="704" y="337"/>
      <point x="723" y="337" type="curve" smooth="yes"/>
      <point x="798" y="337"/>
      <point x="852" y="306"/>
      <point x="852" y="207" type="curve" smooth="yes"/>
      <point x="852" y="128"/>
      <point x="817" y="76"/>
      <point x="736" y="72" type="curve" smooth="yes"/>
      <point x="712" y="71"/>
      <point x="687" y="71"/>
    </contour>
  </outline>
</glyph>
<glyph name="Tshe-cy" format="2">
  <advance width="879"/>
  <unicode hex="040B"/>
  <outline>
    <contour>
      <point x="180" y="0" type="line"/>
      <point x="472" y="0" type="line"/>
      <point x="472" y="77" type="line"/>
      <point x="458" y="77"/>
      <point x="414" y="76"/>
      <point x="392" y="74" type="curve"/>
      <point x="395" y="91"/>
      <point x="396" y="128"/>
      <point x="396" y="164" type="curve" smooth="yes"/>
      <point x="396" y="313" type="line"/>
      <point x="425" y="333"/>
      <point x="456" y="350"/>
      <point x="514" y="350" type="curve" smooth="yes"/>
      <point x="593" y="350"/>
      <point x="630" y="312"/>
      <point x="631" y="230" type="curve" smooth="yes"/>
      <point x="631" y="87"/>
      <point x="633" y="69"/>
      <point x="560" y="66" type="curve"/>
      <point x="560" y="0" type="line"/>
      <point x="847" y="0" type="line"/>
      <point x="847" y="77" type="line"/>
      <point x="833" y="76"/>
      <point x="794" y="75"/>
      <point x="772" y="74" type="curve"/>
      <point x="775" y="91"/>
      <point x="776" y="129"/>
      <point x="776" y="233" type="curve"/>
      <point x="775" y="382"/>
      <point x="703" y="446"/>
      <point x="578" y="446" type="curve" smooth="yes"/>
      <point x="509" y="446"/>
      <point x="448" y="421"/>
      <point x="396" y="390" type="curve"/>
      <point x="396" y="633" type="line"/>
      <point x="444" y="633" type="line" smooth="yes"/>
      <point x="520" y="634"/>
      <point x="567" y="590"/>
      <point x="567" y="500" type="curve"/>
      <point x="633" y="500" type="line"/>
      <point x="627" y="700" type="line"/>
      <point x="21" y="700" type="line"/>
      <point x="16" y="474" type="line"/>
      <point x="82" y="474" type="line"/>
      <point x="82" y="582"/>
      <point x="129" y="631"/>
      <point x="205" y="632" type="curve" smooth="yes"/>
      <point x="251" y="632" type="line"/>
      <point x="251" y="153" type="line" smooth="yes"/>
      <point x="251" y="72"/>
      <point x="225" y="68"/>
      <point x="180" y="66" type="curve"/>
    </contour>
  </outline>
</glyph>
<glyph name="Zhe-cy" format="2">
  <advance width="1037"/>
  <unicode hex="0416"/>
  <anchor x="-6" y="0" name="bottomright"/>
  <anchor x="516" y="700" name="top"/>
  <outline>
    <contour>
      <point x="1" y="0" type="line"/>
      <point x="156" y="0" type="line"/>
      <point x="172" y="1"/>
      <point x="226" y="63"/>
      <point x="253" y="102" type="curve" smooth="yes"/>
      <point x="352" y="246" type="line"/>
      <point x="370" y="271"/>
      <point x="392" y="302"/>
      <point x="411" y="315" type="curve"/>
      <point x="447" y="315" type="line"/>
      <point x="447" y="153" type="line" smooth="yes"/>
      <point x="447" y="72"/>
      <point x="420" y="68"/>
      <point x="375" y="66" type="curve"/>
      <point x="375" y="0" type="line"/>
      <point x="662" y="0" type="line"/>
      <point x="662" y="77" type="line"/>
      <point x="648" y="77"/>
      <point x="609" y="76"/>
      <point x="587" y="74" type="curve"/>
      <point x="590" y="91"/>
      <point x="591" y="128"/>
      <point x="591" y="164" type="curve" smooth="yes"/>
      <point x="591" y="315" type="line"/>
      <point x="627" y="315" type="line"/>
      <point x="645" y="302"/>
      <point x="667" y="271"/>
      <point x="686" y="246" type="curve"/>
      <point x="785" y="102" type="line" smooth="yes"/>
      <point x="811" y="63"/>
      <point x="866" y="1"/>
      <point x="882" y="0" type="curve"/>
      <point x="1036" y="0" type="line"/>
      <point x="1036" y="66" type="line"/>
      <point x="992" y="68"/>
      <point x="946" y="117"/>
      <point x="905" y="174" type="curve" smooth="yes"/>
      <point x="802" y="319" type="line" smooth="yes"/>
      <point x="786" y="341"/>
      <point x="766" y="361"/>
      <point x="740" y="378" type="curve"/>
      <point x="860" y="532" type="line" smooth="yes"/>
      <point x="924" y="614"/>
      <point x="970" y="632"/>
      <point x="1015" y="634" type="curve"/>
      <point x="1015" y="700" type="line"/>
      <point x="786" y="700" type="line"/>
      <point x="786" y="623" type="line"/>
      <point x="801" y="624"/>
      <point x="828" y="625"/>
      <point x="850" y="627" type="curve"/>
      <point x="832" y="612"/>
      <point x="820" y="596"/>
      <point x="766" y="526" type="curve" smooth="yes"/>
      <point x="665" y="395" type="line"/>
      <point x="591" y="395" type="line"/>
      <point x="591" y="547" type="line" smooth="yes"/>
      <point x="591" y="628"/>
      <point x="618" y="632"/>
      <point x="662" y="634" type="curve"/>
      <point x="662" y="700" type="line"/>
      <point x="375" y="700" type="line"/>
      <point x="375" y="623" type="line"/>
      <point x="390" y="624"/>
      <point x="429" y="625"/>
      <point x="451" y="626" type="curve"/>
      <point x="448" y="609"/>
      <point x="447" y="572"/>
      <point x="447" y="536" type="curve" smooth="yes"/>
      <point x="447" y="395" type="line"/>
      <point x="376" y="395" type="line"/>
      <point x="276" y="526" type="line" smooth="yes"/>
      <point x="238" y="575"/>
      <point x="208" y="613"/>
      <point x="191" y="626" type="curve"/>
      <point x="212" y="625"/>
      <point x="240" y="624"/>
      <point x="254" y="623" type="curve"/>
      <point x="254" y="700" type="line"/>
      <point x="23" y="700" type="line"/>
      <point x="23" y="634" type="line"/>
      <point x="68" y="632"/>
      <point x="113" y="614"/>
      <point x="178" y="532" type="curve" smooth="yes"/>
      <point x="298" y="377" type="line"/>
      <point x="272" y="361"/>
      <point x="251" y="341"/>
      <point x="236" y="319" type="curve" smooth="yes"/>
      <point x="133" y="174" type="line" smooth="yes"/>
      <point x="92" y="117"/>
      <point x="46" y="68"/>
      <point x="1" y="66" type="curve"/>
    </contour>
  </outline>
</glyph>
<glyph name="Ze-cy" format="2">
  <advance width="649"/>
  <unicode hex="0417"/>
  <anchor x="314" y="0" name="bottom"/>
  <anchor x="319" y="700" name="top"/>
  <outline>
    <contour>
      <point x="341" y="-16" type="curve" smooth="yes"/>
      <point x="476" y="-19"/>
      <point x="621" y="66"/>
      <point x="621" y="200" type="curve" smooth="yes"/>
      <point x="621" y="294"/>
      <point x="554" y="357"/>
      <point x="432" y="376" type="curve"/>
      <point x="432" y="379" type="line"/>
      <point x="522" y="407"/>
      <point x="576" y="465"/>
      <point x="576" y="543" type="curve" smooth="yes"/>
      <point x="576" y="643"/>
      <point x="491" y="720"/>
      <point x="347" y="716" type="curve" smooth="yes"/>
      <point x="277" y="716"/>
      <point x="238" y="704"/>
      <point x="160" y="664" type="curve"/>
      <point x="164" y="709" type="line"/>
      <point x="87" y="709" type="line"/>
      <point x="87" y="476" type="line"/>
      <point x="152" y="476" type="line"/>
      <point x="181" y="587"/>
      <point x="229" y="644"/>
      <point x="317" y="644" type="curve" smooth="yes"/>
      <point x="390" y="644"/>
      <point x="428" y="604"/>
      <point x="428" y="522" type="curve" smooth="yes"/>
      <point x="428" y="453"/>
      <point x="393" y="401"/>
      <point x="312" y="401" type="curve" smooth="yes"/>
      <point x="222" y="401" type="line"/>
      <point x="222" y="330" type="line"/>
      <point x="349" y="330" type="line" smooth="yes"/>
      <point x="406" y="330"/>
      <point x="463" y="283"/>
      <point x="463" y="201" type="curve" smooth="yes"/>
      <point x="463" y="105"/>
      <point x="384" y="65"/>
      <point x="304" y="65" type="curve" smooth="yes"/>
      <point x="216" y="65"/>
      <point x="135" y="99"/>
      <point x="79" y="176" type="curve"/>
      <point x="30" y="134" type="line"/>
      <point x="122" y="-1"/>
      <point x="244" y="-16"/>
    </contour>
  </outline>
</glyph>
<glyph name="U-cy" format="2">
  <advance width="658"/>
  <unicode hex="0423"/>
  <anchor x="350" y="700" name="top"/>
  <outline>
    <contour>
      <point x="193" y="-16" type="curve" smooth="yes"/>
      <point x="259" y="-16"/>
      <point x="329" y="7"/>
      <point x="385" y="154" type="curve" smooth="yes"/>
      <point x="531" y="539" type="line" smooth="yes"/>
      <point x="561" y="617"/>
      <point x="584" y="634"/>
      <point x="631" y="634" type="curve"/>
      <point x="631" y="700" type="line"/>
      <point x="414" y="700" type="line"/>
      <point x="414" y="623" type="line"/>
      <point x="491" y="627" type="line"/>
      <point x="474" y="605"/>
      <point x="461" y="572"/>
      <point x="447" y="535" type="curve" smooth="yes"/>
      <point x="321" y="194"/>
      <point x="307" y="142"/>
      <point x="270" y="92" type="curve" smooth="yes"/>
      <point x="250" y="65"/>
      <point x="231" y="53"/>
      <point x="215" y="53" type="curve" smooth="yes"/>
      <point x="208" y="53"/>
      <point x="204" y="56"/>
      <point x="201" y="60" type="curve"/>
      <point x="211" y="74"/>
      <point x="216" y="89"/>
      <point x="216" y="104" type="curve" smooth="yes"/>
      <point x="216" y="137"/>
      <point x="192" y="166"/>
      <point x="147" y="166" type="curve" smooth="yes"/>
      <point x="94" y="166"/>
      <point x="71" y="124"/>
      <point x="71" y="83" type="curve" smooth="yes"/>
      <point x="71" y="24"/>
      <point x="129" y="-16"/>
    </contour>
    <contour>
      <point x="326" y="157" type="line"/>
      <point x="385" y="309" type="line"/>
      <point x="373" y="332"/>
      <point x="341" y="379"/>
      <point x="321" y="413" type="curve" smooth="yes"/>
      <point x="238" y="557" type="line" smooth="yes"/>
      <point x="206" y="612"/>
      <point x="239" y="638"/>
      <point x="297" y="634" type="curve"/>
      <point x="297" y="700" type="line"/>
      <point x="2" y="700" type="line"/>
      <point x="2" y="623" type="line"/>
      <point x="51" y="626" type="line"/>
      <point x="51" y="604"/>
      <point x="70" y="558"/>
      <point x="89" y="528" type="curve" smooth="yes"/>
    </contour>
  </outline>
</glyph>
<glyph name="Tse-cy" format="2">
  <advance width="813"/>
  <unicode hex="0426"/>
  <outline>
    <contour>
      <point x="714" y="-177" type="curve"/>
      <point x="787" y="-177" type="line"/>
      <point x="787" y="79" type="line"/>
      <point x="677" y="74" type="line"/>
      <point x="679" y="91"/>
      <point x="681" y="128"/>
      <point x="681" y="164" type="curve" smooth="yes"/>
      <point x="681" y="547" type="line" smooth="yes"/>
      <point x="681" y="628"/>
      <point x="707" y="632"/>
      <point x="752" y="634" type="curve"/>
      <point x="752" y="700" type="line"/>
      <point x="465" y="700" type="line"/>
      <point x="465" y="623" type="line"/>
      <point x="479" y="623"/>
      <point x="519" y="624"/>
      <point x="540" y="626" type="curve"/>
      <point x="538" y="609"/>
      <point x="536" y="572"/>
      <point x="536" y="536" type="curve" smooth="yes"/>
      <point x="536" y="165" type="line" smooth="yes"/>
      <point x="536" y="85"/>
      <point x="511" y="80"/>
      <point x="467" y="78" type="curve" smooth="yes"/>
      <point x="276" y="75" type="line"/>
      <point x="276" y="547" type="line" smooth="yes"/>
      <point x="276" y="628"/>
      <point x="302" y="632"/>
      <point x="347" y="634" type="curve"/>
      <point x="347" y="700" type="line"/>
      <point x="60" y="700" type="line"/>
      <point x="60" y="623" type="line"/>
      <point x="74" y="623"/>
      <point x="114" y="624"/>
      <point x="135" y="626" type="curve"/>
      <point x="133" y="609"/>
      <point x="131" y="572"/>
      <point x="131" y="536" type="curve" smooth="yes"/>
      <point x="131" y="153" type="line" smooth="yes"/>
      <point x="131" y="72"/>
      <point x="105" y="68"/>
      <point x="60" y="66" type="curve"/>
      <point x="60" y="0" type="line"/>
      <point x="643" y="0" type="line" smooth="yes"/>
      <point x="701" y="0"/>
      <point x="716" y="-73"/>
    </contour>
  </outline>
</glyph>
<glyph name="Che-cy" format="2">
  <advance width="737"/>
  <unicode hex="0427"/>
  <anchor x="614" y="0" name="bottomright"/>
  <anchor x="314" y="301" name="center"/>
  <anchor x="365" y="700" name="top"/>
  <outline>
    <contour>
      <point x="400" y="0" type="line"/>
      <point x="687" y="0" type="line"/>
      <point x="687" y="77" type="line"/>
      <point x="673" y="77"/>
      <point x="633" y="76"/>
      <point x="612" y="74" type="curve"/>
      <point x="614" y="91"/>
      <point x="616" y="128"/>
      <point x="616" y="164" type="curve" smooth="yes"/>
      <point x="616" y="547" type="line" smooth="yes"/>
      <point x="616" y="628"/>
      <point x="642" y="632"/>
      <point x="687" y="634" type="curve"/>
      <point x="687" y="700" type="line"/>
      <point x="400" y="700" type="line"/>
      <point x="400" y="623" type="line"/>
      <point x="414" y="624"/>
      <point x="454" y="625"/>
      <point x="475" y="626" type="curve"/>
      <point x="473" y="609"/>
      <point x="471" y="572"/>
      <point x="471" y="536" type="curve" smooth="yes"/>
      <point x="471" y="387" type="line"/>
      <point x="442" y="367"/>
      <point x="411" y="350"/>
      <point x="353" y="350" type="curve" smooth="yes"/>
      <point x="274" y="350"/>
      <point x="237" y="388"/>
      <point x="236" y="470" type="curve"/>
      <point x="236" y="613"/>
      <point x="234" y="631"/>
      <point x="307" y="634" type="curve"/>
      <point x="307" y="700" type="line"/>
      <point x="20" y="700" type="line"/>
      <point x="20" y="623" type="line"/>
      <point x="34" y="624"/>
      <point x="73" y="625"/>
      <point x="95" y="626" type="curve"/>
      <point x="92" y="609"/>
      <point x="91" y="571"/>
      <point x="91" y="467" type="curve" smooth="yes"/>
      <point x="92" y="318"/>
      <point x="164" y="254"/>
      <point x="289" y="254" type="curve" smooth="yes"/>
      <point x="358" y="254"/>
      <point x="419" y="279"/>
      <point x="471" y="310" type="curve"/>
      <point x="471" y="153" type="line" smooth="yes"/>
      <point x="471" y="72"/>
      <point x="445" y="68"/>
      <point x="400" y="66" type="curve"/>
    </contour>
  </outline>
</glyph>
<glyph name="Hardsign-cy" format="2">
  <advance width="764"/>
  <unicode hex="042A"/>
  <outline>
    <contour>
      <point x="180" y="0" type="line"/>
      <point x="496" y="0" type="line" smooth="yes"/>
      <point x="636" y="0"/>
      <point x="739" y="69"/>
      <point x="739" y="199" type="curve" smooth="yes"/>
      <point x="739" y="305"/>
      <point x="690" y="418"/>
      <point x="451" y="409" type="curve" smooth="yes"/>
      <point x="396" y="407" type="line"/>
      <point x="396" y="547" type="line" smooth="yes"/>
      <point x="396" y="628"/>
      <point x="422" y="632"/>
      <point x="467" y="634" type="curve"/>
      <point x="467" y="700" type="line"/>
      <point x="21" y="700" type="line"/>
      <point x="16" y="474" type="line"/>
      <point x="82" y="474" type="line"/>
      <point x="82" y="582"/>
      <point x="129" y="631"/>
      <point x="205" y="632" type="curve" smooth="yes"/>
      <point x="251" y="632" type="line"/>
      <point x="251" y="606"/>
      <point x="251" y="581"/>
      <point x="251" y="555" type="curve"/>
      <point x="251" y="153" type="line" smooth="yes"/>
      <point x="251" y="72"/>
      <point x="225" y="68"/>
      <point x="180" y="66" type="curve"/>
    </contour>
    <contour>
      <point x="392" y="71" type="curve"/>
      <point x="396" y="105"/>
      <point x="396" y="162"/>
      <point x="396" y="335" type="curve"/>
      <point x="415" y="337"/>
      <point x="433" y="337"/>
      <point x="452" y="337" type="curve" smooth="yes"/>
      <point x="527" y="337"/>
      <point x="581" y="306"/>
      <point x="581" y="207" type="curve" smooth="yes"/>
      <point x="581" y="128"/>
      <point x="546" y="76"/>
      <point x="465" y="72" type="curve" smooth="yes"/>
      <point x="441" y="71"/>
      <point x="416" y="71"/>
    </contour>
  </outline>
</glyph>
<glyph name="Softsign-cy" format="2">
  <advance width="634"/>
  <unicode hex="042C"/>
  <outline>
    <contour>
      <point x="337" y="634" type="curve"/>
      <point x="337" y="700" type="line"/>
      <point x="50" y="700" type="line"/>
      <point x="50" y="623" type="line"/>
      <point x="64" y="624"/>
      <point x="104" y="625"/>
      <point x="125" y="626" type="curve"/>
      <point x="123" y="609"/>
      <point x="121" y="572"/>
      <point x="121" y="536" type="curve" smooth="yes"/>
      <point x="121" y="153" type="line" smooth="yes"/>
      <point x="121" y="72"/>
      <point x="95" y="68"/>
      <point x="50" y="66" type="curve"/>
      <point x="50" y="0" type="line"/>
      <point x="366" y="0" type="line" smooth="yes"/>
      <point x="506" y="0"/>
      <point x="609" y="69"/>
      <point x="609" y="199" type="curve" smooth="yes"/>
      <point x="609" y="305"/>
      <point x="560" y="418"/>
      <point x="321" y="409" type="curve" smooth="yes"/>
      <point x="266" y="407" type="line"/>
      <point x="266" y="547" type="line" smooth="yes"/>
      <point x="266" y="628"/>
      <point x="292" y="632"/>
    </contour>
    <contour>
      <point x="266" y="159" type="curve" smooth="yes"/>
      <point x="266" y="335" type="line"/>
      <point x="285" y="337"/>
      <point x="303" y="337"/>
      <point x="322" y="337" type="curve" smooth="yes"/>
      <point x="397" y="337"/>
      <point x="451" y="306"/>
      <point x="451" y="207" type="curve" smooth="yes"/>
      <point x="451" y="128"/>
      <point x="416" y="76"/>
      <point x="335" y="72" type="curve" smooth="yes"/>
      <point x="311" y="71"/>
      <point x="286" y="71"/>
      <point x="262" y="71" type="curve"/>
      <point x="264" y="88"/>
      <point x="266" y="123"/>
    </contour>
  </outline>
</glyph>
<glyph name="Ereversed-cy" format="2">
  <advance width="689"/>
  <unicode hex="042D"/>
  <anchor x="326" y="700" name="top"/>
  <outline>
    <contour>
      <point x="306" y="-16" type="curve" smooth="yes"/>
      <point x="522" y="-16"/>
      <point x="654" y="161"/>
      <point x="654" y="360" type="curve" smooth="yes"/>
      <point x="654" y="542"/>
      <point x="550" y="716"/>
      <point x="317" y="716" type="curve" smooth="yes"/>
      <point x="257" y="716"/>
      <point x="188" y="697"/>
      <point x="135" y="663" type="curve"/>
      <point x="137" y="709" type="line"/>
      <point x="60" y="709" type="line"/>
      <point x="60" y="490" type="line"/>
      <point x="126" y="490" type="line"/>
      <point x="144" y="592"/>
      <point x="210" y="643"/>
      <point x="304" y="644" type="curve" smooth="yes"/>
      <point x="443" y="644"/>
      <point x="497" y="504"/>
      <point x="497" y="360" type="curve" smooth="yes"/>
      <point x="497" y="188"/>
      <point x="426" y="65"/>
      <point x="281" y="65" type="curve" smooth="yes"/>
      <point x="198" y="65"/>
      <point x="118" y="106"/>
      <point x="63" y="183" type="curve"/>
      <point x="15" y="139" type="line"/>
      <point x="113" y="4"/>
      <point x="223" y="-16"/>
    </contour>
    <contour>
      <point x="180" y="237" type="line"/>
      <point x="246" y="237" type="line"/>
      <point x="246" y="321"/>
      <point x="290" y="325"/>
      <point x="344" y="325" type="curve" smooth="yes"/>
      <point x="521" y="324" type="line"/>
      <point x="521" y="403" type="line"/>
      <point x="252" y="403" type="line"/>
      <point x="254" y="431"/>
      <point x="255" y="465"/>
      <point x="257" y="490" type="curve"/>
      <point x="180" y="490" type="line"/>
    </contour>
  </outline>
</glyph>
<glyph name="be-cy" format="2">
  <advance width="566"/>
  <unicode hex="0431"/>
  <outline>
    <contour>
      <point x="290" y="-16" type="curve" smooth="yes"/>
      <point x="432" y="-16"/>
      <point x="535" y="91"/>
      <point x="535" y="259" type="curve" smooth="yes"/>
      <point x="535" y="401"/>
      <point x="435" y="482"/>
      <point x="306" y="482" type="curve" smooth="yes"/>
      <point x="227" y="481"/>
      <point x="145" y="444"/>
      <point x="107" y="357" type="curve"/>
      <point x="103" y="357" type="line"/>
      <point x="118" y="482"/>
      <point x="168" y="555"/>
      <point x="235" y="577" type="curve" smooth="yes"/>
      <point x="315" y="603"/>
      <point x="361" y="591"/>
      <point x="413" y="606" type="curve" smooth="yes"/>
      <point x="457" y="624"/>
      <point x="472" y="652"/>
      <point x="494" y="754" type="curve"/>
      <point x="447" y="770" type="line"/>
      <point x="432" y="744"/>
      <point x="423" y="737"/>
      <point x="407" y="729" type="curve" smooth="yes"/>
      <point x="358" y="706"/>
      <point x="255" y="713"/>
      <point x="169" y="658" type="curve" smooth="yes"/>
      <point x="83" y="603"/>
      <point x="41" y="447"/>
      <point x="41" y="313" type="curve" smooth="yes"/>
      <point x="41" y="94"/>
      <point x="146" y="-16"/>
    </contour>
    <contour>
      <point x="290" y="55" type="curve" smooth="yes"/>
      <point x="218" y="53"/>
      <point x="183" y="164"/>
      <point x="183" y="266" type="curve" smooth="yes"/>
      <point x="183" y="336"/>
      <point x="213" y="410"/>
      <point x="281" y="412" type="curve" smooth="yes"/>
      <point x="362" y="414"/>
      <point x="387" y="315"/>
      <point x="387" y="234" type="curve" smooth="yes"/>
      <point x="387" y="149"/>
      <point x="369" y="56"/>
    </contour>
  </outline>
</glyph>
<glyph name="ve-cy" format="2">
  <advance width="579"/>
  <unicode hex="0432"/>
  <outline>
    <contour>
      <point x="42" y="0" type="line"/>
      <point x="357" y="0" type="line" smooth="yes"/>
      <point x="467" y="0"/>
      <point x="547" y="49"/>
      <point x="547" y="141" type="curve" smooth="yes"/>
      <point x="547" y="201"/>
      <point x="510" y="247"/>
      <point x="424" y="265" type="curve"/>
      <point x="489" y="288"/>
      <point x="514" y="329"/>
      <point x="514" y="382" type="curve" smooth="yes"/>
      <point x="514" y="462"/>
      <point x="457" y="501"/>
      <point x="343" y="501" type="curve" smooth="yes"/>
      <point x="243" y="501"/>
      <point x="143" y="500"/>
      <point x="43" y="500" type="curve"/>
      <point x="42" y="435" type="line"/>
      <point x="53" y="435"/>
      <point x="88" y="436"/>
      <point x="104" y="437" type="curve"/>
      <point x="103" y="424"/>
      <point x="102" y="398"/>
      <point x="102" y="373" type="curve" smooth="yes"/>
      <point x="102" y="126" type="line" smooth="yes"/>
      <point x="102" y="69"/>
      <point x="78" y="66"/>
      <point x="42" y="65" type="curve"/>
    </contour>
    <contour>
      <point x="237" y="68" type="curve"/>
      <point x="239" y="84"/>
      <point x="243" y="104"/>
      <point x="243" y="128" type="curve" smooth="yes"/>
      <point x="243" y="221" type="line"/>
      <point x="264" y="222"/>
      <point x="294" y="222"/>
      <point x="323" y="222" type="curve" smooth="yes"/>
      <point x="366" y="222"/>
      <point x="409" y="204"/>
      <point x="409" y="144" type="curve" smooth="yes"/>
      <point x="409" y="101"/>
      <point x="385" y="71"/>
      <point x="331" y="69" type="curve" smooth="yes"/>
      <point x="310" y="68"/>
      <point x="267" y="68"/>
    </contour>
    <contour>
      <point x="243" y="283" type="line"/>
      <point x="243" y="389" type="line" smooth="yes"/>
      <point x="243" y="434"/>
      <point x="263" y="438"/>
      <point x="289" y="438" type="curve" smooth="yes"/>
      <point x="353" y="439"/>
      <point x="384" y="425"/>
      <point x="384" y="371" type="curve" smooth="yes"/>
      <point x="384" y="321"/>
      <point x="370" y="288"/>
      <point x="290" y="284" type="curve" smooth="yes"/>
    </contour>
  </outline>
</glyph>
<glyph name="zhe-cy" format="2">
  <advance width="889"/>
  <unicode hex="0436"/>
  <anchor x="438" y="500" name="top"/>
  <outline>
    <contour>
      <point x="18" y="0" type="line"/>
      <point x="130" y="0" type="line" smooth="yes"/>
      <point x="173" y="0"/>
      <point x="200" y="31"/>
      <point x="242" y="87" type="curve" smooth="yes"/>
      <point x="277" y="135"/>
      <point x="322" y="201"/>
      <point x="342" y="229" type="curve"/>
      <point x="371" y="228" type="line"/>
      <point x="371" y="154" type="line" smooth="yes"/>
      <point x="371" y="101"/>
      <point x="368" y="65"/>
      <point x="321" y="65" type="curve"/>
      <point x="321" y="0" type="line"/>
      <point x="563" y="0" type="line"/>
      <point x="563" y="76" type="line"/>
      <point x="510" y="73" type="line"/>
      <point x="512" y="103"/>
      <point x="513" y="142"/>
      <point x="513" y="161" type="curve" smooth="yes"/>
      <point x="513" y="228" type="line"/>
      <point x="548" y="229" type="line"/>
      <point x="568" y="201"/>
      <point x="612" y="135"/>
      <point x="648" y="87" type="curve" smooth="yes"/>
      <point x="689" y="31"/>
      <point x="717" y="0"/>
      <point x="759" y="0" type="curve" smooth="yes"/>
      <point x="871" y="0" type="line"/>
      <point x="871" y="65" type="line"/>
      <point x="830" y="65"/>
      <point x="795" y="115"/>
      <point x="780" y="135" type="curve" smooth="yes"/>
      <point x="758" y="164"/>
      <point x="735" y="194"/>
      <point x="713" y="223" type="curve" smooth="yes"/>
      <point x="684" y="260"/>
      <point x="668" y="275"/>
      <point x="647" y="286" type="curve"/>
      <point x="711" y="357" type="line" smooth="yes"/>
      <point x="740" y="389"/>
      <point x="782" y="428"/>
      <point x="854" y="436" type="curve"/>
      <point x="854" y="500" type="line"/>
      <point x="628" y="500" type="line"/>
      <point x="628" y="424" type="line"/>
      <point x="681" y="425" type="line"/>
      <point x="669" y="413"/>
      <point x="659" y="401"/>
      <point x="642" y="382" type="curve" smooth="yes"/>
      <point x="571" y="299" type="line"/>
      <point x="513" y="299" type="line"/>
      <point x="513" y="346" type="line" smooth="yes"/>
      <point x="513" y="399"/>
      <point x="516" y="435"/>
      <point x="563" y="435" type="curve"/>
      <point x="563" y="500" type="line"/>
      <point x="325" y="500" type="line"/>
      <point x="325" y="424" type="line"/>
      <point x="375" y="427" type="line"/>
      <point x="372" y="397"/>
      <point x="371" y="358"/>
      <point x="371" y="339" type="curve" smooth="yes"/>
      <point x="371" y="299" type="line"/>
      <point x="320" y="299" type="line"/>
      <point x="249" y="382" type="line" smooth="yes"/>
      <point x="232" y="401"/>
      <point x="222" y="413"/>
      <point x="210" y="424" type="curve"/>
      <point x="263" y="424" type="line"/>
      <point x="263" y="500" type="line"/>
      <point x="36" y="500" type="line"/>
      <point x="36" y="436" type="line"/>
      <point x="107" y="428"/>
      <point x="149" y="389"/>
      <point x="178" y="357" type="curve" smooth="yes"/>
      <point x="242" y="285" type="line"/>
      <point x="204" y="266"/>
      <point x="171" y="215"/>
      <point x="110" y="135" type="curve" smooth="yes"/>
      <point x="94" y="115"/>
      <point x="59" y="65"/>
      <point x="18" y="65" type="curve"/>
    </contour>
  </outline>
</glyph>
<glyph name="ii-cy" format="2">
  <advance width="658"/>
  <unicode hex="0438"/>
  <anchor x="535" y="0" name="bottomright"/>
  <anchor x="329" y="500" name="top"/>
  <outline>
    <contour>
      <point x="301" y="435" type="curve"/>
      <point x="301" y="500" type="line"/>
      <point x="39" y="500" type="line"/>
      <point x="39" y="424" type="line"/>
      <point x="53" y="424"/>
      <point x="83" y="425"/>
      <point x="104" y="427" type="curve"/>
      <point x="101" y="397"/>
      <point x="100" y="358"/>
      <point x="100" y="339" type="curve" smooth="yes"/>
      <point x="100" y="154" type="line" smooth="yes"/>
      <point x="100" y="101"/>
      <point x="96" y="65"/>
      <point x="41" y="65" type="curve"/>
      <point x="41" y="0" type="line"/>
      <point x="303" y="0" type="line"/>
      <point x="303" y="76" type="line"/>
      <point x="289" y="76"/>
      <point x="259" y="75"/>
      <point x="238" y="73" type="curve"/>
      <point x="241" y="103"/>
      <point x="242" y="142"/>
      <point x="242" y="161" type="curve" smooth="yes"/>
      <point x="242" y="346" type="line" smooth="yes"/>
      <point x="242" y="399"/>
      <point x="246" y="435"/>
    </contour>
    <contour>
      <point x="449" y="416" type="line"/>
      <point x="161" y="141" type="line"/>
      <point x="210" y="90" type="line"/>
      <point x="497" y="366" type="line"/>
    </contour>
    <contour>
      <point x="625" y="435" type="curve"/>
      <point x="625" y="500" type="line"/>
      <point x="363" y="500" type="line"/>
      <point x="363" y="424" type="line"/>
      <point x="377" y="424"/>
      <point x="407" y="425"/>
      <point x="428" y="427" type="curve"/>
      <point x="425" y="397"/>
      <point x="424" y="358"/>
      <point x="424" y="339" type="curve" smooth="yes"/>
      <point x="424" y="154" type="line" smooth="yes"/>
      <point x="424" y="101"/>
      <point x="420" y="65"/>
      <point x="365" y="65" type="curve"/>
      <point x="365" y="0" type="line"/>
      <point x="627" y="0" type="line"/>
      <point x="627" y="76" type="line"/>
      <point x="613" y="76"/>
      <point x="583" y="75"/>
      <point x="562" y="73" type="curve"/>
      <point x="565" y="103"/>
      <point x="566" y="142"/>
      <point x="566" y="161" type="curve" smooth="yes"/>
      <point x="566" y="346" type="line" smooth="yes"/>
      <point x="566" y="399"/>
      <point x="570" y="435"/>
    </contour>
  </outline>
</glyph>
<glyph name="ka-cy" format="2">
  <advance width="594"/>
  <unicode hex="043A"/>
  <outline>
    <contour>
      <point x="25" y="0" type="line"/>
      <point x="288" y="0" type="line"/>
      <point x="288" y="76" type="line"/>
      <point x="273" y="76"/>
      <point x="244" y="75"/>
      <point x="223" y="73" type="curve"/>
      <point x="226" y="103"/>
      <point x="227" y="142"/>
      <point x="227" y="161" type="curve" smooth="yes"/>
      <point x="227" y="228" type="line"/>
      <point x="250" y="229" type="line"/>
      <point x="270" y="201"/>
      <point x="314" y="135"/>
      <point x="350" y="87" type="curve" smooth="yes"/>
      <point x="391" y="31"/>
      <point x="418" y="0"/>
      <point x="461" y="0" type="curve" smooth="yes"/>
      <point x="576" y="0" type="line"/>
      <point x="576" y="65" type="line"/>
      <point x="535" y="65"/>
      <point x="500" y="115"/>
      <point x="484" y="135" type="curve" smooth="yes"/>
      <point x="417" y="223" type="line" smooth="yes"/>
      <point x="389" y="260"/>
      <point x="372" y="275"/>
      <point x="352" y="286" type="curve"/>
      <point x="416" y="357" type="line" smooth="yes"/>
      <point x="444" y="389"/>
      <point x="487" y="428"/>
      <point x="558" y="436" type="curve"/>
      <point x="558" y="500" type="line"/>
      <point x="333" y="500" type="line"/>
      <point x="333" y="424" type="line"/>
      <point x="386" y="424" type="line"/>
      <point x="374" y="413"/>
      <point x="364" y="401"/>
      <point x="347" y="382" type="curve" smooth="yes"/>
      <point x="275" y="299" type="line"/>
      <point x="227" y="299" type="line"/>
      <point x="227" y="346" type="line" smooth="yes"/>
      <point x="227" y="399"/>
      <point x="230" y="435"/>
      <point x="286" y="435" type="curve"/>
      <point x="286" y="500" type="line"/>
      <point x="24" y="500" type="line"/>
      <point x="24" y="424" type="line"/>
      <point x="38" y="424"/>
      <point x="67" y="425"/>
      <point x="89" y="427" type="curve"/>
      <point x="86" y="397"/>
      <point x="85" y="358"/>
      <point x="85" y="339" type="curve" smooth="yes"/>
      <point x="85" y="154" type="line" smooth="yes"/>
      <point x="85" y="101"/>
      <point x="81" y="65"/>
      <point x="25" y="65" type="curve"/>
    </contour>
  </outline>
</glyph>
<glyph name="em-cy" format="2">
  <advance width="800"/>
  <unicode hex="043C"/>
  <anchor x="686" y="0" name="bottomright"/>
  <outline>
    <contour>
      <point x="28" y="0" type="line"/>
      <point x="225" y="0" type="line"/>
      <point x="225" y="76" type="line"/>
      <point x="159" y="74" type="line"/>
      <point x="163" y="88"/>
      <point x="166" y="101"/>
      <point x="168" y="117" type="curve" smooth="yes"/>
      <point x="188" y="245" type="line" smooth="yes"/>
      <point x="195" y="286"/>
      <point x="197" y="315"/>
      <point x="197" y="349" type="curve"/>
      <point x="208" y="319"/>
      <point x="217" y="294"/>
      <point x="230" y="262" type="curve" smooth="yes"/>
      <point x="340" y="0" type="line"/>
      <point x="419" y="0" type="line"/>
      <point x="553" y="354" type="line"/>
      <point x="596" y="119" type="line" smooth="yes"/>
      <point x="604" y="76"/>
      <point x="582" y="65"/>
      <point x="540" y="65" type="curve"/>
      <point x="540" y="0" type="line"/>
      <point x="778" y="0" type="line"/>
      <point x="778" y="76" type="line"/>
      <point x="723" y="73" type="line"/>
      <point x="725" y="92"/>
      <point x="724" y="113"/>
      <point x="720" y="132" type="curve" smooth="yes"/>
      <point x="675" y="390" type="line" smooth="yes"/>
      <point x="668" y="426"/>
      <point x="689" y="442"/>
      <point x="731" y="444" type="curve"/>
      <point x="731" y="500" type="line"/>
      <point x="533" y="500" type="line"/>
      <point x="427" y="207" type="line" smooth="yes"/>
      <point x="419" y="184"/>
      <point x="411" y="163"/>
      <point x="403" y="141" type="curve"/>
      <point x="393" y="168"/>
      <point x="378" y="201"/>
      <point x="368" y="226" type="curve" smooth="yes"/>
      <point x="253" y="500" type="line"/>
      <point x="58" y="500" type="line"/>
      <point x="58" y="424" type="line"/>
      <point x="137" y="427" type="line"/>
      <point x="133" y="415"/>
      <point x="132" y="400"/>
      <point x="130" y="381" type="curve" smooth="yes"/>
      <point x="96" y="120" type="line" smooth="yes"/>
      <point x="90" y="78"/>
      <point x="71" y="67"/>
      <point x="28" y="65" type="curve"/>
    </contour>
  </outline>
</glyph>
<glyph name="ia-cy" format="2">
  <advance width="591"/>
  <unicode hex="044F"/>
  <outline>
    <contour>
      <point x="22" y="0" type="line"/>
      <point x="122" y="0" type="line" smooth="yes"/>
      <point x="165" y="0"/>
      <point x="192" y="31"/>
      <point x="233" y="87" type="curve" smooth="yes"/>
      <point x="262" y="124"/>
      <point x="288" y="176"/>
      <point x="304" y="197" type="curve"/>
      <point x="347" y="198" type="line"/>
      <point x="347" y="154" type="line" smooth="yes"/>
      <point x="347" y="101"/>
      <point x="345" y="65"/>
      <point x="302" y="65" type="curve"/>
      <point x="302" y="0" type="line"/>
      <point x="550" y="0" type="line"/>
      <point x="550" y="76" type="line"/>
      <point x="485" y="73" type="line"/>
      <point x="488" y="103"/>
      <point x="489" y="142"/>
      <point x="489" y="161" type="curve" smooth="yes"/>
      <point x="489" y="374" type="line" smooth="yes"/>
      <point x="489" y="431"/>
      <point x="518" y="434"/>
      <point x="549" y="435" type="curve"/>
      <point x="549" y="500" type="line"/>
      <point x="246" y="500" type="line" smooth="yes"/>
      <point x="150" y="500"/>
      <point x="69" y="451"/>
      <point x="70" y="351" type="curve" smooth="yes"/>
      <point x="70" y="285"/>
      <point x="113" y="241"/>
      <point x="187" y="219" type="curve"/>
      <point x="169" y="212"/>
      <point x="155" y="199"/>
      <point x="146" y="185" type="curve" smooth="yes"/>
      <point x="114" y="135" type="line" smooth="yes"/>
      <point x="100" y="114"/>
      <point x="63" y="65"/>
      <point x="22" y="65" type="curve"/>
    </contour>
    <contour>
      <point x="285" y="258" type="curve" smooth="yes"/>
      <point x="238" y="257"/>
      <point x="202" y="292"/>
      <point x="203" y="347" type="curve" smooth="yes"/>
      <point x="204" y="399"/>
      <point x="232" y="429"/>
      <point x="272" y="431" type="curve" smooth="yes"/>
      <point x="296" y="433"/>
      <point x="322" y="432"/>
      <point x="350" y="432" type="curve"/>
      <point x="348" y="416"/>
      <point x="347" y="396"/>
      <point x="347" y="372" type="curve" smooth="yes"/>
      <point x="347" y="259" type="line"/>
      <point x="326" y="259"/>
      <point x="306" y="258"/>
    </contour>
  </outline>
</glyph>
<glyph name="dje-cy" format="2">
  <advance width="601"/>
  <unicode hex="0452"/>
  <outline>
    <contour>
      <point x="348" y="-234" type="curve" smooth="yes"/>
      <point x="471" y="-234"/>
      <point x="540" y="-108"/>
      <point x="540" y="38" type="curve" smooth="yes"/>
      <point x="541" y="246" type="line" smooth="yes"/>
      <point x="542" y="400"/>
      <point x="494" y="467"/>
      <point x="372" y="467" type="curve" smooth="yes"/>
      <point x="331" y="467"/>
      <point x="265" y="442"/>
      <point x="226" y="412" type="curve"/>
      <point x="226" y="532" type="line"/>
      <point x="411" y="532" type="line"/>
      <point x="411" y="597" type="line"/>
      <point x="226" y="597" type="line"/>
      <point x="226" y="755" type="line"/>
      <point x="172" y="755" type="line"/>
      <point x="158" y="742"/>
      <point x="111" y="725"/>
      <point x="18" y="725" type="curve"/>
      <point x="18" y="649" type="line"/>
      <point x="32" y="650"/>
      <point x="67" y="651"/>
      <point x="88" y="652" type="curve"/>
      <point x="87" y="634"/>
      <point x="86" y="615"/>
      <point x="85" y="597" type="curve"/>
      <point x="5" y="597" type="line"/>
      <point x="5" y="531" type="line"/>
      <point x="84" y="531" type="line"/>
      <point x="84" y="154" type="line" smooth="yes"/>
      <point x="84" y="101"/>
      <point x="81" y="65"/>
      <point x="25" y="65" type="curve"/>
      <point x="25" y="0" type="line"/>
      <point x="287" y="0" type="line"/>
      <point x="287" y="76" type="line"/>
      <point x="222" y="73" type="line"/>
      <point x="225" y="103"/>
      <point x="226" y="142"/>
      <point x="226" y="161" type="curve" smooth="yes"/>
      <point x="226" y="338" type="line"/>
      <point x="248" y="358"/>
      <point x="284" y="375"/>
      <point x="317" y="375" type="curve" smooth="yes"/>
      <point x="373" y="375"/>
      <point x="398" y="334"/>
      <point x="398" y="248" type="curve" smooth="yes"/>
      <point x="398" y="28" type="line" smooth="yes"/>
      <point x="398" y="-116"/>
      <point x="366" y="-161"/>
      <point x="309" y="-161" type="curve" smooth="yes"/>
      <point x="284" y="-161"/>
      <point x="272" y="-159"/>
      <point x="247" y="-153" type="curve"/>
      <point x="231" y="-217" type="line"/>
      <point x="282" y="-231"/>
      <point x="311" y="-234"/>
    </contour>
  </outline>
</glyph>
<glyph name="lje-cy" format="2">
  <advance width="876"/>
  <unicode hex="0459"/>
  <outline>
    <contour>
      <point x="111" y="-14" type="curve" smooth="yes"/>
      <point x="228" y="-14"/>
      <point x="294" y="113"/>
      <point x="309" y="380" type="curve" smooth="yes"/>
      <point x="311" y="413"/>
      <point x="324" y="421"/>
      <point x="356" y="421" type="curve" smooth="yes"/>
      <point x="436" y="421" type="line"/>
      <point x="433" y="393"/>
      <point x="433" y="358"/>
      <point x="433" y="339" type="curve" smooth="yes"/>
      <point x="433" y="126" type="line" smooth="yes"/>
      <point x="433" y="69"/>
      <point x="409" y="66"/>
      <point x="373" y="65" type="curve"/>
      <point x="373" y="0" type="line"/>
      <point x="673" y="0" type="line" smooth="yes"/>
      <point x="769" y="0"/>
      <point x="852" y="49"/>
      <point x="851" y="158" type="curve"/>
      <point x="851" y="242"/>
      <point x="803" y="310"/>
      <point x="616" y="304" type="curve" smooth="yes"/>
      <point x="569" y="302" type="line"/>
      <point x="569" y="346" type="line" smooth="yes"/>
      <point x="569" y="399"/>
      <point x="573" y="435"/>
      <point x="629" y="435" type="curve"/>
      <point x="629" y="500" type="line"/>
      <point x="140" y="500" type="line"/>
      <point x="140" y="424" type="line"/>
      <point x="233" y="431" type="line"/>
      <point x="230" y="373" type="line" smooth="yes"/>
      <point x="215" y="127"/>
      <point x="164" y="56"/>
      <point x="133" y="56" type="curve" smooth="yes"/>
      <point x="129" y="56"/>
      <point x="125" y="57"/>
      <point x="122" y="59" type="curve"/>
      <point x="128" y="65"/>
      <point x="133" y="73"/>
      <point x="133" y="90" type="curve" smooth="yes"/>
      <point x="133" y="116"/>
      <point x="117" y="144"/>
      <point x="74" y="144" type="curve" smooth="yes"/>
      <point x="33" y="144"/>
      <point x="5" y="120"/>
      <point x="5" y="76" type="curve" smooth="yes"/>
      <point x="5" y="22"/>
      <point x="49" y="-14"/>
    </contour>
    <contour>
      <point x="563" y="68" type="curve"/>
      <point x="565" y="84"/>
      <point x="569" y="104"/>
      <point x="569" y="128" type="curve" smooth="yes"/>
      <point x="569" y="241" type="line"/>
      <point x="589" y="242"/>
      <point x="610" y="241"/>
      <point x="637" y="242" type="curve"/>
      <point x="680" y="242"/>
      <point x="717" y="213"/>
      <point x="716" y="153" type="curve" smooth="yes"/>
      <point x="715" y="101"/>
      <point x="686" y="71"/>
      <point x="644" y="69" type="curve"/>
      <point x="620" y="67"/>
      <point x="591" y="68"/>
    </contour>
  </outline>
</glyph>
<glyph name="yat-cy" format="2">
  <advance width="614"/>
  <unicode hex="0463"/>
  <outline>
    <contour>
      <point x="88" y="0" type="line"/>
      <point x="397" y="0" type="line" smooth="yes"/>
      <point x="492" y="0"/>
      <point x="573" y="49"/>
      <point x="572" y="158" type="curve"/>
      <point x="572" y="242"/>
      <point x="526" y="312"/>
      <point x="337" y="304" type="curve" smooth="yes"/>
      <point x="290" y="302" type="line"/>
      <point x="290" y="422" type="line"/>
      <point x="314" y="422" type="line" smooth="yes"/>
      <point x="374" y="422"/>
      <point x="403" y="409"/>
      <point x="403" y="343" type="curve"/>
      <point x="468" y="343" type="line"/>
      <point x="464" y="500" type="line"/>
      <point x="290" y="500" type="line"/>
      <point x="290" y="755" type="line"/>
      <point x="235" y="755" type="line"/>
      <point x="222" y="742"/>
      <point x="174" y="725"/>
      <point x="82" y="725" type="curve"/>
      <point x="82" y="649" type="line"/>
      <point x="96" y="650"/>
      <point x="130" y="651"/>
      <point x="152" y="652" type="curve"/>
      <point x="149" y="623"/>
      <point x="148" y="589"/>
      <point x="148" y="565" type="curve" smooth="yes"/>
      <point x="148" y="500" type="line"/>
      <point x="19" y="500" type="line"/>
      <point x="15" y="318" type="line"/>
      <point x="80" y="318" type="line"/>
      <point x="80" y="391"/>
      <point x="93" y="422"/>
      <point x="138" y="422" type="curve"/>
      <point x="148" y="422" type="line"/>
      <point x="148" y="126" type="line" smooth="yes"/>
      <point x="148" y="69"/>
      <point x="124" y="66"/>
      <point x="88" y="65" type="curve"/>
    </contour>
    <contour>
      <point x="284" y="68" type="curve"/>
      <point x="286" y="84"/>
      <point x="290" y="104"/>
      <point x="290" y="128" type="curve" smooth="yes"/>
      <point x="290" y="241" type="line"/>
      <point x="307" y="242"/>
      <point x="330" y="242"/>
      <point x="353" y="242" type="curve" smooth="yes"/>
      <point x="402" y="242"/>
      <point x="438" y="213"/>
      <point x="437" y="153" type="curve" smooth="yes"/>
      <point x="436" y="101"/>
      <point x="408" y="71"/>
      <point x="361" y="69" type="curve" smooth="yes"/>
      <point x="340" y="68"/>
      <point x="309" y="68"/>
    </contour>
  </outline>
</glyph>
<glyph name="Yusbig-cy" format="2">
  <advance width="1015"/>
  <unicode hex="046A"/>
  <outline>
    <contour>
      <point x="-10" y="0" type="line"/>
      <point x="145" y="0" type="line"/>
      <point x="161" y="1"/>
      <point x="215" y="63"/>
      <point x="242" y="102" type="curve" smooth="yes"/>
      <point x="341" y="246" type="line" smooth="yes"/>
      <point x="359" y="271"/>
      <point x="381" y="302"/>
      <point x="400" y="315" type="curve"/>
      <point x="436" y="315" type="line"/>
      <point x="436" y="153" type="line" smooth="yes"/>
      <point x="436" y="72"/>
      <point x="409" y="68"/>
      <point x="364" y="66" type="curve"/>
      <point x="364" y="0" type="line"/>
      <point x="651" y="0" type="line"/>
      <point x="651" y="77" type="line"/>
      <point x="637" y="77"/>
      <point x="598" y="76"/>
      <point x="576" y="74" type="curve"/>
      <point x="579" y="91"/>
      <point x="580" y="128"/>
      <point x="580" y="164" type="curve" smooth="yes"/>
      <point x="580" y="315" type="line"/>
      <point x="616" y="315" type="line"/>
      <point x="634" y="302"/>
      <point x="656" y="271"/>
      <point x="675" y="246" type="curve"/>
      <point x="774" y="102" type="line" smooth="yes"/>
      <point x="800" y="63"/>
      <point x="855" y="1"/>
      <point x="871" y="0" type="curve"/>
      <point x="1025" y="0" type="line"/>
      <point x="1025" y="66" type="line"/>
      <point x="981" y="68"/>
      <point x="935" y="117"/>
      <point x="894" y="174" type="curve" smooth="yes"/>
      <point x="791" y="319" type="line" smooth="yes"/>
      <point x="775" y="341"/>
      <point x="736" y="395"/>
      <point x="658" y="395" type="curve"/>
      <point x="634" y="387" type="line"/>
      <point x="729" y="519" type="line" smooth="yes"/>
      <point x="778" y="587"/>
      <point x="786" y="599"/>
      <point x="823" y="606" type="curve"/>
      <point x="826" y="606" type="line"/>
      <point x="826" y="700" type="line"/>
      <point x="177" y="700" type="line"/>
      <point x="177" y="595" type="line"/>
      <point x="225" y="598" type="line"/>
      <point x="225" y="576"/>
      <point x="240" y="537"/>
      <point x="263" y="511" type="curve" smooth="yes"/>
      <point x="365" y="395" type="line"/>
      <point x="365" y="395"/>
      <point x="357" y="394"/>
      <point x="352" y="394" type="curve"/>
      <point x="294" y="390"/>
      <point x="255" y="364"/>
      <point x="225" y="319" type="curve" smooth="yes"/>
      <point x="122" y="174" type="line" smooth="yes"/>
      <point x="81" y="117"/>
      <point x="35" y="68"/>
      <point x="-10" y="66" type="curve"/>
    </contour>
    <contour>
      <point x="529" y="362" type="line"/>
      <point x="409" y="529" type="line"/>
      <point x="373" y="576"/>
      <point x="402" y="594"/>
      <point x="450" y="595" type="curve" smooth="yes"/>
      <point x="687" y="598" type="line"/>
      <point x="669" y="577"/>
      <point x="637" y="529"/>
      <point x="622" y="507" type="curve" smooth="yes"/>
    </contour>
  </outline>
</glyph>
<glyph name="yusbig-cy" format="2">
  <advance width="879"/>
  <unicode hex="046B"/>
  <guideline x="-116" y="283" angle="0"/>
  <guideline x="280" y="413" angle="0"/>
  <outline>
    <contour>
      <point x="18" y="0" type="line"/>
      <point x="130" y="0" type="line" smooth="yes"/>
      <point x="173" y="0"/>
      <point x="200" y="31"/>
      <point x="242" y="87" type="curve" smooth="yes"/>
      <point x="277" y="135"/>
      <point x="322" y="201"/>
      <point x="342" y="229" type="curve"/>
      <point x="372" y="229" type="line"/>
      <point x="372" y="154" type="line" smooth="yes"/>
      <point x="372" y="101"/>
      <point x="369" y="65"/>
      <point x="322" y="65" type="curve"/>
      <point x="322" y="0" type="line"/>
      <point x="552" y="0" type="line"/>
      <point x="552" y="76" type="line"/>
      <point x="499" y="73" type="line"/>
      <point x="501" y="103"/>
      <point x="502" y="142"/>
      <point x="502" y="161" type="curve" smooth="yes"/>
      <point x="502" y="228" type="line"/>
      <point x="538" y="229" type="line"/>
      <point x="558" y="201"/>
      <point x="602" y="135"/>
      <point x="638" y="87" type="curve" smooth="yes"/>
      <point x="679" y="31"/>
      <point x="707" y="0"/>
      <point x="749" y="0" type="curve" smooth="yes"/>
      <point x="861" y="0" type="line"/>
      <point x="861" y="65" type="line"/>
      <point x="820" y="65"/>
      <point x="785" y="115"/>
      <point x="770" y="135" type="curve" smooth="yes"/>
      <point x="748" y="164"/>
      <point x="725" y="194"/>
      <point x="703" y="223" type="curve" smooth="yes"/>
      <point x="674" y="260"/>
      <point x="643" y="302"/>
      <point x="589" y="299" type="curve" smooth="yes"/>
      <point x="553" y="297" type="line"/>
      <point x="572" y="316" type="line" smooth="yes"/>
      <point x="604" y="349"/>
      <point x="671" y="427"/>
      <point x="705" y="427" type="curve"/>
      <point x="705" y="500" type="line"/>
      <point x="172" y="500" type="line"/>
      <point x="172" y="414" type="line"/>
      <point x="209" y="415" type="line"/>
      <point x="214" y="391"/>
      <point x="221" y="374"/>
      <point x="260" y="341" type="curve" smooth="yes"/>
      <point x="312" y="298" type="line"/>
      <point x="280" y="302"/>
      <point x="264" y="299"/>
      <point x="244" y="287" type="curve" smooth="yes"/>
      <point x="214" y="270"/>
      <point x="184" y="233"/>
      <point x="143" y="180" type="curve" smooth="yes"/>
      <point x="70" y="84"/>
      <point x="58" y="65"/>
      <point x="18" y="65" type="curve"/>
    </contour>
    <contour>
      <point x="469" y="277" type="line"/>
      <point x="445" y="304"/>
      <point x="420" y="331"/>
      <point x="396" y="358" type="curve" smooth="yes"/>
      <point x="377" y="377"/>
      <point x="367" y="401"/>
      <point x="372" y="417" type="curve"/>
      <point x="586" y="421" type="line"/>
      <point x="574" y="405"/>
      <point x="565" y="393"/>
      <point x="556" y="382" type="curve"/>
    </contour>
  </outline>
</glyph>
<glyph name="fita-cy" format="2">
  <advance width="566"/>
  <unicode hex="0473"/>
  <outline>
    <contour>
      <point x="325" y="198" type="curve" smooth="yes"/>
      <point x="363" y="198"/>
      <point x="384" y="233"/>
      <point x="407" y="275" type="curve"/>
      <point x="398" y="297" type="line"/>
      <point x="387" y="276"/>
      <point x="365" y="267"/>
      <point x="343" y="267" type="curve" smooth="yes"/>
      <point x="321" y="267"/>
      <point x="307" y="274"/>
      <point x="293" y="282" type="curve" smooth="yes"/>
      <point x="280" y="289"/>
      <point x="266" y="297"/>
      <point x="245" y="297" type="curve" smooth="yes"/>
      <point x="210" y="297"/>
      <point x="168" y="258"/>
      <point x="153" y="229" type="curve"/>
      <point x="160" y="207" type="line"/>
      <point x="177" y="223"/>
      <point x="202" y="227"/>
      <point x="218" y="227" type="curve" smooth="yes"/>
      <point x="240" y="227"/>
      <point x="253" y="221"/>
      <point x="266" y="214" type="curve" smooth="yes"/>
      <point x="281" y="206"/>
      <point x="297" y="198"/>
    </contour>
    <contour>
      <point x="286" y="-16" type="curve" smooth="yes"/>
      <point x="432" y="-16"/>
      <point x="535" y="91"/>
      <point x="535" y="259" type="curve" smooth="yes"/>
      <point x="535" y="419"/>
      <point x="426" y="516"/>
      <point x="283" y="516" type="curve" smooth="yes"/>
      <point x="146" y="516"/>
      <point x="31" y="405"/>
      <point x="31" y="239" type="curve" smooth="yes"/>
      <point x="31" y="82"/>
      <point x="141" y="-16"/>
    </contour>
    <contour>
      <point x="290" y="55" type="curve" smooth="yes"/>
      <point x="208" y="53"/>
      <point x="178" y="164"/>
      <point x="178" y="266" type="curve" smooth="yes"/>
      <point x="178" y="353"/>
      <point x="203" y="444"/>
      <point x="281" y="446" type="curve" smooth="yes"/>
      <point x="362" y="448"/>
      <point x="387" y="333"/>
      <point x="387" y="234" type="curve" smooth="yes"/>
      <point x="387" y="149"/>
      <point x="369" y="56"/>
    </contour>
  </outline>
</glyph>
<glyph name="Izhitsa-cy" format="2">
  <advance width="743"/>
  <unicode hex="0474"/>
  <outline>
    <contour>
      <point x="320" y="-6" type="line"/>
      <point x="402" y="-6" type="line"/>
      <point x="546" y="468" type="line" smooth="yes"/>
      <point x="581" y="583"/>
      <point x="607" y="645"/>
      <point x="623" y="645" type="curve" smooth="yes"/>
      <point x="627" y="645"/>
      <point x="630" y="644"/>
      <point x="632" y="641" type="curve"/>
      <point x="625" y="634"/>
      <point x="619" y="619"/>
      <point x="619" y="607" type="curve" smooth="yes"/>
      <point x="619" y="571"/>
      <point x="641" y="546"/>
      <point x="676" y="542" type="curve" smooth="yes"/>
      <point x="733" y="535"/>
      <point x="763" y="576"/>
      <point x="763" y="623" type="curve" smooth="yes"/>
      <point x="763" y="665"/>
      <point x="735" y="716"/>
      <point x="665" y="716" type="curve" smooth="yes"/>
      <point x="596" y="716"/>
      <point x="532" y="671"/>
      <point x="477" y="488" type="curve" smooth="yes"/>
      <point x="429" y="328"/>
      <point x="409" y="250"/>
      <point x="392" y="188" type="curve"/>
      <point x="356" y="276"/>
      <point x="370" y="250"/>
      <point x="337" y="331" type="curve" smooth="yes"/>
      <point x="245" y="557" type="line" smooth="yes"/>
      <point x="221" y="616"/>
      <point x="253" y="635"/>
      <point x="303" y="634" type="curve"/>
      <point x="303" y="700" type="line"/>
      <point x="8" y="700" type="line"/>
      <point x="8" y="623" type="line"/>
      <point x="22" y="624"/>
      <point x="40" y="625"/>
      <point x="62" y="626" type="curve"/>
      <point x="62" y="604"/>
      <point x="76" y="564"/>
      <point x="90" y="531" type="curve" smooth="yes"/>
    </contour>
  </outline>
</glyph>
<glyph name="izhitsa-cy" format="2">
  <advance width="558"/>
  <unicode hex="0475"/>
  <outline>
    <contour>
      <point x="227" y="-3" type="line"/>
      <point x="319" y="-3" type="line"/>
      <point x="404" y="329" type="line"/>
      <point x="430" y="419"/>
      <point x="442" y="451"/>
      <point x="465" y="451" type="curve" smooth="yes"/>
      <point x="469" y="451"/>
      <point x="473" y="449"/>
      <point x="474" y="447" type="curve"/>
      <point x="468" y="442"/>
      <point x="459" y="429"/>
      <point x="459" y="412" type="curve" smooth="yes"/>
      <point x="459" y="370"/>
      <point x="487" y="354"/>
      <point x="521" y="354" type="curve" smooth="yes"/>
      <point x="571" y="354"/>
      <point x="588" y="391"/>
      <point x="588" y="428" type="curve" smooth="yes"/>
      <point x="588" y="475"/>
      <point x="552" y="516"/>
      <point x="495" y="516" type="curve" smooth="yes"/>
      <point x="441" y="516"/>
      <point x="393" y="495"/>
      <point x="357" y="369" type="curve" smooth="yes"/>
      <point x="340" y="310"/>
      <point x="330" y="268"/>
      <point x="320" y="226" type="curve" smooth="yes"/>
      <point x="314" y="201"/>
      <point x="309" y="176"/>
      <point x="302" y="148" type="curve"/>
      <point x="292" y="174"/>
      <point x="281" y="199"/>
      <point x="271" y="225" type="curve"/>
      <point x="216" y="358" type="line" smooth="yes"/>
      <point x="200" y="397"/>
      <point x="198" y="434"/>
      <point x="240" y="436" type="curve"/>
      <point x="240" y="500" type="line"/>
      <point x="6" y="500" type="line"/>
      <point x="6" y="424" type="line"/>
      <point x="43" y="426" type="line"/>
      <point x="48" y="402"/>
      <point x="47" y="393"/>
      <point x="69" y="344" type="curve" smooth="yes"/>
    </contour>
  </outline>
</glyph>
<glyph name="ertick-cy" format="2">
  <advance width="601"/>
  <unicode hex="048F"/>
  <outline>
    <contour>
      <point x="432" y="-95" type="line"/>
      <point x="483" y="-55" type="line"/>
      <point x="323" y="169" type="line"/>
      <point x="273" y="131" type="line"/>
    </contour>
    <component base="p"/>
  </outline>
</glyph>
<glyph name="Gheupturn-cy" format="2">
  <advance width="571"/>
  <unicode hex="0490"/>
  <outline>
    <contour>
      <point x="50" y="0" type="line"/>
      <point x="351" y="0" type="line"/>
      <point x="351" y="77" type="line"/>
      <point x="336" y="77"/>
      <point x="283" y="76"/>
      <point x="262" y="74" type="curve"/>
      <point x="264" y="91"/>
      <point x="266" y="128"/>
      <point x="266" y="164" type="curve" smooth="yes"/>
      <point x="266" y="547" type="line" smooth="yes"/>
      <point x="266" y="625"/>
      <point x="291" y="634"/>
      <point x="333" y="634" type="curve" smooth="yes"/>
      <point x="550" y="634" type="line"/>
      <point x="556" y="828" type="line"/>
      <point x="490" y="828" type="line"/>
      <point x="490" y="720"/>
      <point x="423" y="700"/>
      <point x="369" y="700" type="curve" smooth="yes"/>
      <point x="50" y="700" type="line"/>
      <point x="50" y="623" type="line"/>
      <point x="64" y="624"/>
      <point x="104" y="625"/>
      <point x="125" y="626" type="curve"/>
      <point x="123" y="609"/>
      <point x="121" y="572"/>
      <point x="121" y="536" type="curve" smooth="yes"/>
      <point x="121" y="153" type="line" smooth="yes"/>
      <point x="121" y="72"/>
      <point x="95" y="68"/>
      <point x="50" y="66" type="curve"/>
    </contour>
  </outline>
</glyph>
<glyph name="Ghestroke-cy" format="2">
  <advance width="571"/>
  <unicode hex="0492"/>
  <outline>
    <contour>
      <point x="29" y="303" type="line"/>
      <point x="404" y="306" type="line"/>
      <point x="404" y="382" type="line"/>
      <point x="29" y="382" type="line"/>
    </contour>
    <component base="Ge-cy"/>
  </outline>
</glyph>
<glyph name="ghestroke-cy" format="2">
  <advance width="496"/>
  <unicode hex="0493"/>
  <outline>
    <contour>
      <point x="15" y="211" type="line"/>
      <point x="345" y="214" type="line"/>
      <point x="345" y="277" type="line"/>
      <point x="15" y="277" type="line"/>
    </contour>
    <component base="ge-cy"/>
  </outline>
</glyph>
<glyph name="kadescender-cy" format="2">
  <advance width="670"/>
  <unicode hex="049B"/>
  <outline>
    <contour>
      <point x="587" y="-183" type="curve"/>
      <point x="652" y="-183" type="line"/>
      <point x="652" y="78" type="line"/>
      <point x="565" y="73"/>
      <point x="548" y="75"/>
      <point x="502" y="135" type="curve" smooth="yes"/>
      <point x="480" y="164"/>
      <point x="457" y="194"/>
      <point x="435" y="223" type="curve" smooth="yes"/>
      <point x="407" y="260"/>
      <point x="390" y="275"/>
      <point x="370" y="286" type="curve"/>
      <point x="434" y="357" type="line" smooth="yes"/>
      <point x="462" y="389"/>
      <point x="505" y="428"/>
      <point x="576" y="436" type="curve"/>
      <point x="576" y="500" type="line"/>
      <point x="351" y="500" type="line"/>
      <point x="351" y="424" type="line"/>
      <point x="404" y="424" type="line"/>
      <point x="392" y="413"/>
      <point x="382" y="401"/>
      <point x="365" y="382" type="curve" smooth="yes"/>
      <point x="293" y="299" type="line"/>
      <point x="245" y="299" type="line"/>
      <point x="245" y="346" type="line" smooth="yes"/>
      <point x="245" y="399"/>
      <point x="248" y="435"/>
      <point x="304" y="435" type="curve"/>
      <point x="304" y="500" type="line"/>
      <point x="42" y="500" type="line"/>
      <point x="42" y="424" type="line"/>
      <point x="56" y="424"/>
      <point x="85" y="425"/>
      <point x="107" y="427" type="curve"/>
      <point x="104" y="397"/>
      <point x="103" y="358"/>
      <point x="103" y="339" type="curve" smooth="yes"/>
      <point x="103" y="154" type="line" smooth="yes"/>
      <point x="103" y="101"/>
      <point x="99" y="65"/>
      <point x="43" y="65" type="curve"/>
      <point x="43" y="0" type="line"/>
      <point x="306" y="0" type="line"/>
      <point x="306" y="76" type="line"/>
      <point x="291" y="76"/>
      <point x="262" y="75"/>
      <point x="241" y="73" type="curve"/>
      <point x="244" y="103"/>
      <point x="245" y="142"/>
      <point x="245" y="161" type="curve" smooth="yes"/>
      <point x="245" y="228" type="line"/>
      <point x="268" y="229" type="line"/>
      <point x="288" y="201"/>
      <point x="332" y="135"/>
      <point x="368" y="87" type="curve" smooth="yes"/>
      <point x="426" y="8"/>
      <point x="449" y="0"/>
      <point x="506" y="0" type="curve" smooth="yes"/>
      <point x="558" y="0"/>
      <point x="588" y="-49"/>
    </contour>
  </outline>
</glyph>
<glyph name="Ustraightstroke-cy" format="2">
  <advance width="667"/>
  <unicode hex="04B0"/>
  <outline>
    <contour>
      <point x="145" y="200" type="line"/>
      <point x="546" y="203" type="line"/>
      <point x="546" y="279" type="line"/>
      <point x="145" y="279" type="line"/>
    </contour>
    <component base="Y"/>
  </outline>
</glyph>
<glyph name="chedescender-cy" format="2">
  <advance width="620"/>
  <unicode hex="04B7"/>
  <outline>
    <contour>
      <point x="528" y="-183" type="curve"/>
      <point x="593" y="-183" type="line"/>
      <point x="593" y="78" type="line"/>
      <point x="491" y="73" type="line"/>
      <point x="494" y="103"/>
      <point x="495" y="142"/>
      <point x="495" y="161" type="curve" smooth="yes"/>
      <point x="495" y="346" type="line" smooth="yes"/>
      <point x="495" y="399"/>
      <point x="499" y="435"/>
      <point x="554" y="435" type="curve"/>
      <point x="554" y="500" type="line"/>
      <point x="318" y="500" type="line"/>
      <point x="318" y="424" type="line"/>
      <point x="359" y="427" type="line"/>
      <point x="356" y="397"/>
      <point x="355" y="358"/>
      <point x="355" y="339" type="curve" smooth="yes"/>
      <point x="355" y="269" type="line"/>
      <point x="339" y="264"/>
      <point x="321" y="261"/>
      <point x="298" y="261" type="curve" smooth="yes"/>
      <point x="239" y="261"/>
      <point x="215" y="294"/>
      <point x="212" y="355" type="curve"/>
      <point x="212" y="416"/>
      <point x="215" y="432"/>
      <point x="260" y="435" type="curve"/>
      <point x="260" y="500" type="line"/>
      <point x="10" y="500" type="line"/>
      <point x="10" y="424" type="line"/>
      <point x="74" y="427" type="line"/>
      <point x="72" y="391"/>
      <point x="71" y="366"/>
      <point x="71" y="314" type="curve"/>
      <point x="76" y="226"/>
      <point x="140" y="168"/>
      <point x="247" y="168" type="curve" smooth="yes"/>
      <point x="286" y="168"/>
      <point x="322" y="174"/>
      <point x="355" y="186" type="curve"/>
      <point x="355" y="156" type="line" smooth="yes"/>
      <point x="355" y="86"/>
      <point x="344" y="65"/>
      <point x="295" y="65" type="curve"/>
      <point x="295" y="0" type="line"/>
      <point x="447" y="0" type="line" smooth="yes"/>
      <point x="499" y="0"/>
      <point x="529" y="-49"/>
    </contour>
  </outline>
</glyph>
<glyph name="Cheabkhasian-cy" format="2">
  <advance width="881"/>
  <unicode hex="04BC"/>
  <guideline x="519" y="331" angle="0"/>
  <outline>
    <contour>
      <point x="535" y="-16" type="curve"/>
      <point x="623" y="-16"/>
      <point x="748" y="9"/>
      <point x="846" y="144" type="curve"/>
      <point x="798" y="188" type="line"/>
      <point x="742" y="111"/>
      <point x="643" y="65"/>
      <point x="559" y="65" type="curve" smooth="yes"/>
      <point x="387" y="64"/>
      <point x="334" y="237"/>
      <point x="334" y="362" type="curve" smooth="yes"/>
      <point x="334" y="490"/>
      <point x="384" y="640"/>
      <point x="521" y="643" type="curve" smooth="yes"/>
      <point x="673" y="646"/>
      <point x="712" y="506"/>
      <point x="690" y="331" type="curve"/>
      <point x="838" y="331" type="line"/>
      <point x="842" y="353"/>
      <point x="844" y="376"/>
      <point x="844" y="399" type="curve" smooth="yes"/>
      <point x="844" y="555"/>
      <point x="750" y="716"/>
      <point x="535" y="716" type="curve" smooth="yes"/>
      <point x="288" y="716"/>
      <point x="177" y="523"/>
      <point x="177" y="350" type="curve" smooth="yes"/>
      <point x="177" y="176"/>
      <point x="262" y="-16"/>
    </contour>
    <contour>
      <point x="256" y="331" type="curve"/>
      <point x="725" y="331" type="line"/>
      <point x="725" y="406" type="line"/>
      <point x="256" y="406" type="line" smooth="yes"/>
      <point x="146" y="406"/>
      <point x="78" y="410"/>
      <point x="63" y="440" type="curve" smooth="yes"/>
      <point x="61" y="444"/>
      <point x="62" y="448"/>
      <point x="63" y="451" type="curve"/>
      <point x="69" y="449"/>
      <point x="75" y="448"/>
      <point x="81" y="448" type="curve" smooth="yes"/>
      <point x="111" y="448"/>
      <point x="138" y="472"/>
      <point x="138" y="510" type="curve" smooth="yes"/>
      <point x="138" y="544"/>
      <point x="120" y="587"/>
      <point x="61" y="587" type="curve" smooth="yes"/>
      <point x="9" y="587"/>
      <point x="-30" y="542"/>
      <point x="-30" y="488" type="curve" smooth="yes"/>
      <point x="-30" y="409"/>
      <point x="32" y="331"/>
    </contour>
  </outline>
</glyph>
<glyph name="Chedescenderabkhasian-cy" format="2">
  <advance width="881"/>
  <unicode hex="04BE"/>
  <outline>
    <contour>
      <point x="494" y="-178" type="line"/>
      <point x="581" y="-176" type="line"/>
      <point x="571" y="39" type="line"/>
      <point x="494" y="39" type="line"/>
    </contour>
    <component base="Cheabkhasian-cy"/>
  </outline>
</glyph>
<glyph name="Kahook-cy" format="2">
  <advance width="678"/>
  <unicode hex="04C3"/>
  <outline>
    <contour>
      <point x="504" y="-237" type="line"/>
      <point x="603" y="-190"/>
      <point x="677" y="-131"/>
      <point x="677" y="-36" type="curve" smooth="yes"/>
      <point x="677" y="30"/>
      <point x="658" y="124"/>
      <point x="575" y="231" type="curve" smooth="yes"/>
      <point x="492" y="338"/>
      <point x="449" y="363"/>
      <point x="414" y="377" type="curve"/>
      <point x="510" y="532" type="line" smooth="yes"/>
      <point x="565" y="621"/>
      <point x="620" y="632"/>
      <point x="665" y="634" type="curve"/>
      <point x="665" y="700" type="line"/>
      <point x="420" y="700" type="line"/>
      <point x="420" y="623" type="line"/>
      <point x="434" y="624"/>
      <point x="462" y="625"/>
      <point x="483" y="627" type="curve"/>
      <point x="466" y="612"/>
      <point x="438" y="566"/>
      <point x="415" y="526" type="curve" smooth="yes"/>
      <point x="338" y="395" type="line"/>
      <point x="266" y="395" type="line"/>
      <point x="266" y="547" type="line" smooth="yes"/>
      <point x="266" y="628"/>
      <point x="292" y="632"/>
      <point x="337" y="634" type="curve"/>
      <point x="337" y="700" type="line"/>
      <point x="50" y="700" type="line"/>
      <point x="50" y="623" type="line"/>
      <point x="64" y="624"/>
      <point x="104" y="625"/>
      <point x="125" y="626" type="curve"/>
      <point x="123" y="609"/>
      <point x="121" y="572"/>
      <point x="121" y="536" type="curve" smooth="yes"/>
      <point x="121" y="153" type="line" smooth="yes"/>
      <point x="121" y="72"/>
      <point x="95" y="68"/>
      <point x="50" y="66" type="curve"/>
      <point x="50" y="0" type="line"/>
      <point x="337" y="0" type="line"/>
      <point x="337" y="77" type="line"/>
      <point x="323" y="77"/>
      <point x="283" y="76"/>
      <point x="262" y="74" type="curve"/>
      <point x="264" y="91"/>
      <point x="266" y="128"/>
      <point x="266" y="164" type="curve" smooth="yes"/>
      <point x="266" y="315" type="line"/>
      <point x="302" y="315" type="line"/>
      <point x="338" y="294"/>
      <point x="376" y="273"/>
      <point x="465" y="154" type="curve" smooth="yes"/>
      <point x="524" y="75"/>
      <point x="557" y="-14"/>
      <point x="555" y="-66" type="curve" smooth="yes"/>
      <point x="553" y="-125"/>
      <point x="519" y="-157"/>
      <point x="472" y="-180" type="curve"/>
    </contour>
  </outline>
</glyph>
<glyph name="obarred-cy" format="2">
  <advance width="566"/>
  <unicode hex="04E9"/>
  <anchor x="283" y="500" name="top"/>
  <outline>
    <contour>
      <point x="166" y="290" type="line"/>
      <point x="166" y="224" type="line"/>
      <point x="401" y="224" type="line"/>
      <point x="401" y="287" type="line"/>
    </contour>
    <component base="o"/>
  </outline>
</glyph>
<glyph name="Gedescender-cy" format="2">
  <advance width="571"/>
  <unicode hex="04F6"/>
  <outline>
    <contour>
      <point x="550" y="700" type="line"/>
      <point x="50" y="700" type="line"/>
      <point x="50" y="623" type="line"/>
      <point x="64" y="624"/>
      <point x="104" y="625"/>
      <point x="125" y="626" type="curve"/>
      <point x="123" y="609"/>
      <point x="121" y="572"/>
      <point x="121" y="536" type="curve" smooth="yes"/>
      <point x="121" y="153" type="line" smooth="yes"/>
      <point x="121" y="72"/>
      <point x="95" y="68"/>
      <point x="50" y="66" type="curve"/>
      <point x="50" y="0" type="line"/>
      <point x="231" y="0" type="line" smooth="yes"/>
      <point x="283" y="0"/>
      <point x="313" y="-49"/>
      <point x="312" y="-183" type="curve"/>
      <point x="377" y="-183" type="line"/>
      <point x="377" y="78" type="line"/>
      <point x="262" y="76" type="line"/>
      <point x="264" y="94"/>
      <point x="266" y="130"/>
      <point x="266" y="164" type="curve" smooth="yes"/>
      <point x="266" y="547" type="line" smooth="yes"/>
      <point x="266" y="625"/>
      <point x="291" y="633"/>
      <point x="333" y="634" type="curve" smooth="yes"/>
      <point x="369" y="635" type="line" smooth="yes"/>
      <point x="423" y="637"/>
      <point x="490" y="615"/>
      <point x="490" y="506" type="curve"/>
      <point x="556" y="506" type="line"/>
    </contour>
  </outline>
</glyph>
<glyph name="Hahook-cy" format="2">
  <advance width="689"/>
  <unicode hex="04FC"/>
  <outline>
    <contour>
      <point x="504" y="-237" type="line"/>
      <point x="619" y="-183"/>
      <point x="679" y="-114"/>
      <point x="679" y="-30" type="curve" smooth="yes"/>
      <point x="679" y="25"/>
      <point x="653" y="86"/>
      <point x="600" y="154" type="curve" smooth="yes"/>
      <point x="538" y="233"/>
      <point x="476" y="311"/>
      <point x="414" y="390" type="curve"/>
      <point x="510" y="521" type="line" smooth="yes"/>
      <point x="563" y="594"/>
      <point x="605" y="628"/>
      <point x="651" y="634" type="curve"/>
      <point x="651" y="700" type="line"/>
      <point x="424" y="700" type="line"/>
      <point x="424" y="623" type="line"/>
      <point x="438" y="624"/>
      <point x="477" y="625"/>
      <point x="499" y="626" type="curve" smooth="yes"/>
      <point x="481" y="610"/>
      <point x="468" y="596"/>
      <point x="440" y="558" type="curve" smooth="yes"/>
      <point x="364" y="453" type="line"/>
      <point x="334" y="491"/>
      <point x="305" y="528"/>
      <point x="275" y="566" type="curve" smooth="yes"/>
      <point x="245" y="604"/>
      <point x="245" y="634"/>
      <point x="308" y="634" type="curve"/>
      <point x="318" y="634" type="line"/>
      <point x="318" y="700" type="line"/>
      <point x="14" y="700" type="line"/>
      <point x="14" y="623" type="line"/>
      <point x="28" y="624"/>
      <point x="42" y="625"/>
      <point x="64" y="626" type="curve"/>
      <point x="74" y="597"/>
      <point x="92" y="560"/>
      <point x="114" y="532" type="curve"/>
      <point x="275" y="328" type="line"/>
      <point x="159" y="173" type="line" smooth="yes"/>
      <point x="110" y="107"/>
      <point x="73" y="75"/>
      <point x="35" y="66" type="curve"/>
      <point x="35" y="0" type="line"/>
      <point x="255" y="0" type="line"/>
      <point x="255" y="77" type="line"/>
      <point x="241" y="77"/>
      <point x="206" y="75"/>
      <point x="184" y="73" type="curve"/>
      <point x="200" y="90"/>
      <point x="211" y="104"/>
      <point x="239" y="142" type="curve" smooth="yes"/>
      <point x="268" y="182"/>
      <point x="298" y="223"/>
      <point x="328" y="263" type="curve"/>
      <point x="383" y="196"/>
      <point x="437" y="128"/>
      <point x="492" y="61" type="curve" smooth="yes"/>
      <point x="534" y="9"/>
      <point x="557" y="-36"/>
      <point x="557" y="-74" type="curve" smooth="yes"/>
      <point x="557" y="-116"/>
      <point x="530" y="-151"/>
      <point x="472" y="-180" type="curve"/>
    </contour>
  </outline>
</glyph>
<glyph name="hahook-cy" format="2">
  <advance width="546"/>
  <unicode hex="04FD"/>
  <outline>
    <contour>
      <point x="365" y="-244" type="line"/>
      <point x="462" y="-201"/>
      <point x="538" y="-145"/>
      <point x="536" y="-50" type="curve" smooth="yes"/>
      <point x="536" y="4"/>
      <point x="511" y="63"/>
      <point x="466" y="122" type="curve" smooth="yes"/>
      <point x="333" y="274" type="line"/>
      <point x="400" y="356" type="line" smooth="yes"/>
      <point x="429" y="393"/>
      <point x="460" y="419"/>
      <point x="500" y="436" type="curve"/>
      <point x="500" y="500" type="line"/>
      <point x="324" y="500" type="line"/>
      <point x="324" y="424" type="line"/>
      <point x="373" y="428" type="line"/>
      <point x="355" y="411"/>
      <point x="340" y="392"/>
      <point x="324" y="373" type="curve" smooth="yes"/>
      <point x="286" y="327" type="line"/>
      <point x="239" y="381" type="line" smooth="yes"/>
      <point x="215" y="409"/>
      <point x="205" y="434"/>
      <point x="242" y="436" type="curve"/>
      <point x="242" y="500" type="line"/>
      <point x="21" y="500" type="line"/>
      <point x="21" y="424" type="line"/>
      <point x="48" y="426" type="line"/>
      <point x="57" y="402"/>
      <point x="89" y="364"/>
      <point x="105" y="344" type="curve" smooth="yes"/>
      <point x="138" y="306"/>
      <point x="170" y="267"/>
      <point x="203" y="229" type="curve"/>
      <point x="116" y="129" type="line" smooth="yes"/>
      <point x="89" y="98"/>
      <point x="67" y="75"/>
      <point x="40" y="64" type="curve"/>
      <point x="40" y="0" type="line"/>
      <point x="206" y="0" type="line"/>
      <point x="206" y="76" type="line"/>
      <point x="160" y="73" type="line"/>
      <point x="172" y="81"/>
      <point x="198" y="111"/>
      <point x="205" y="120" type="curve" smooth="yes"/>
      <point x="251" y="176" type="line"/>
      <point x="379" y="31" type="line" smooth="yes"/>
      <point x="420" y="-21"/>
      <point x="435" y="-58"/>
      <point x="434" y="-86" type="curve" smooth="yes"/>
      <point x="431" y="-128"/>
      <point x="386" y="-162"/>
      <point x="336" y="-184" type="curve"/>
    </contour>
  </outline>
</glyph>
<glyph name="Hastroke-cy" format="2">
  <advance width="699"/>
  <unicode hex="04FE"/>
  <outline>
    <contour>
      <point x="89" y="318" type="line"/>
      <point x="614" y="321" type="line"/>
      <point x="614" y="397" type="line"/>
      <point x="89" y="397" type="line"/>
    </contour>
    <component base="X"/>
  </outline>
</glyph>
<glyph name="hastroke-cy" format="2">
  <advance width="548"/>
  <unicode hex="04FF"/>
  <outline>
    <contour>
      <point x="52" y="221" type="line"/>
      <point x="477" y="224" type="line"/>
      <point x="477" y="287" type="line"/>
      <point x="52" y="287" type="line"/>
    </contour>
    <component base="ha-cy"/>
  </outline>
</glyph>
<glyph name="Reversedze-cy" format="2">
  <advance width="659"/>
  <unicode hex="0510"/>
  <outline>
    <contour>
      <point x="330" y="-16" type="curve" smooth="yes"/>
      <point x="407" y="-16"/>
      <point x="539" y="-1"/>
      <point x="631" y="134" type="curve"/>
      <point x="582" y="176" type="line"/>
      <point x="526" y="99"/>
      <point x="445" y="65"/>
      <point x="357" y="65" type="curve" smooth="yes"/>
      <point x="277" y="65"/>
      <point x="198" y="105"/>
      <point x="198" y="201" type="curve" smooth="yes"/>
      <point x="198" y="283"/>
      <point x="250" y="330"/>
      <point x="307" y="330" type="curve" smooth="yes"/>
      <point x="434" y="330" type="line"/>
      <point x="434" y="401" type="line"/>
      <point x="344" y="401" type="line" smooth="yes"/>
      <point x="263" y="401"/>
      <point x="213" y="453"/>
      <point x="213" y="522" type="curve" smooth="yes"/>
      <point x="213" y="604"/>
      <point x="257" y="644"/>
      <point x="330" y="644" type="curve" smooth="yes"/>
      <point x="418" y="644"/>
      <point x="466" y="587"/>
      <point x="495" y="486" type="curve"/>
      <point x="560" y="486" type="line"/>
      <point x="560" y="709" type="line"/>
      <point x="483" y="709" type="line"/>
      <point x="485" y="664" type="line"/>
      <point x="429" y="699"/>
      <point x="380" y="716"/>
      <point x="310" y="716" type="curve" smooth="yes"/>
      <point x="166" y="720"/>
      <point x="65" y="628"/>
      <point x="65" y="528" type="curve" smooth="yes"/>
      <point x="65" y="452"/>
      <point x="111" y="398"/>
      <point x="202" y="376" type="curve"/>
      <point x="105" y="354"/>
      <point x="40" y="283"/>
      <point x="40" y="180" type="curve" smooth="yes"/>
      <point x="40" y="46"/>
      <point x="195" y="-19"/>
    </contour>
  </outline>
</glyph>
<glyph name="Elhook-cy" format="2">
  <advance width="787"/>
  <unicode hex="0512"/>
  <outline>
    <contour>
      <point x="470" y="-229" type="curve" smooth="yes"/>
      <point x="600" y="-229"/>
      <point x="666" y="-119"/>
      <point x="666" y="34" type="curve" smooth="yes"/>
      <point x="666" y="547" type="line" smooth="yes"/>
      <point x="666" y="628"/>
      <point x="692" y="632"/>
      <point x="737" y="634" type="curve"/>
      <point x="737" y="700" type="line"/>
      <point x="185" y="700" type="line"/>
      <point x="185" y="623" type="line"/>
      <point x="270" y="625" type="line"/>
      <point x="300" y="626" type="line"/>
      <point x="297" y="510" type="line" smooth="yes"/>
      <point x="289" y="192"/>
      <point x="213" y="65"/>
      <point x="177" y="65" type="curve" smooth="yes"/>
      <point x="171" y="65"/>
      <point x="165" y="66"/>
      <point x="162" y="68" type="curve"/>
      <point x="168" y="76"/>
      <point x="170" y="83"/>
      <point x="170" y="96" type="curve" smooth="yes"/>
      <point x="170" y="132"/>
      <point x="150" y="161"/>
      <point x="103" y="161" type="curve" smooth="yes"/>
      <point x="46" y="161"/>
      <point x="21" y="120"/>
      <point x="21" y="73" type="curve" smooth="yes"/>
      <point x="21" y="16"/>
      <point x="68" y="-16"/>
      <point x="140" y="-16" type="curve" smooth="yes"/>
      <point x="258" y="-16"/>
      <point x="365" y="132"/>
      <point x="374" y="563" type="curve" smooth="yes"/>
      <point x="375" y="607"/>
      <point x="396" y="621"/>
      <point x="441" y="622" type="curve" smooth="yes"/>
      <point x="521" y="625" type="line"/>
      <point x="521" y="26" type="line" smooth="yes"/>
      <point x="521" y="-111"/>
      <point x="469" y="-156"/>
      <point x="417" y="-156" type="curve" smooth="yes"/>
      <point x="396" y="-156"/>
      <point x="378" y="-155"/>
      <point x="354" y="-149" type="curve"/>
      <point x="338" y="-212" type="line"/>
      <point x="403" y="-229"/>
      <point x="443" y="-229"/>
    </contour>
  </outline>
</glyph>
<glyph name="Shhadescender-cy" format="2">
  <advance width="742"/>
  <unicode hex="0526"/>
  <outline>
    <contour>
      <point x="679" y="-177" type="curve"/>
      <point x="752" y="-177" type="line"/>
      <point x="752" y="79" type="line"/>
      <point x="642" y="74" type="line"/>
      <point x="645" y="91"/>
      <point x="646" y="129"/>
      <point x="646" y="233" type="curve"/>
      <point x="645" y="382"/>
      <point x="573" y="446"/>
      <point x="448" y="446" type="curve" smooth="yes"/>
      <point x="379" y="446"/>
      <point x="318" y="421"/>
      <point x="266" y="390" type="curve"/>
      <point x="266" y="547" type="line" smooth="yes"/>
      <point x="266" y="628"/>
      <point x="292" y="632"/>
      <point x="337" y="634" type="curve"/>
      <point x="337" y="700" type="line"/>
      <point x="50" y="700" type="line"/>
      <point x="50" y="623" type="line"/>
      <point x="64" y="623"/>
      <point x="104" y="624"/>
      <point x="125" y="626" type="curve"/>
      <point x="123" y="609"/>
      <point x="121" y="572"/>
      <point x="121" y="536" type="curve" smooth="yes"/>
      <point x="121" y="153" type="line" smooth="yes"/>
      <point x="121" y="72"/>
      <point x="95" y="68"/>
      <point x="50" y="66" type="curve"/>
      <point x="50" y="0" type="line"/>
      <point x="337" y="0" type="line"/>
      <point x="337" y="77" type="line"/>
      <point x="323" y="76"/>
      <point x="283" y="75"/>
      <point x="262" y="74" type="curve"/>
      <point x="264" y="91"/>
      <point x="266" y="128"/>
      <point x="266" y="164" type="curve" smooth="yes"/>
      <point x="266" y="313" type="line"/>
      <point x="295" y="333"/>
      <point x="326" y="350"/>
      <point x="384" y="350" type="curve" smooth="yes"/>
      <point x="463" y="350"/>
      <point x="500" y="312"/>
      <point x="501" y="230" type="curve" smooth="yes"/>
      <point x="501" y="153" type="line" smooth="yes"/>
      <point x="501" y="72"/>
      <point x="475" y="68"/>
      <point x="430" y="66" type="curve"/>
      <point x="430" y="0" type="line"/>
      <point x="608" y="0" type="line" smooth="yes"/>
      <point x="666" y="0"/>
      <point x="681" y="-73"/>
    </contour>
  </outline>
</glyph>
<glyph name="shhadescender-cy" format="2">
  <advance width="666"/>
  <unicode hex="0527"/>
  <outline>
    <contour>
      <point x="537" y="73" type="line"/>
      <point x="540" y="103"/>
      <point x="541" y="142"/>
      <point x="541" y="161" type="curve" smooth="yes"/>
      <point x="541" y="295" type="line"/>
      <point x="540" y="449"/>
      <point x="494" y="516"/>
      <point x="372" y="516" type="curve" smooth="yes"/>
      <point x="331" y="516"/>
      <point x="265" y="491"/>
      <point x="226" y="460" type="curve"/>
      <point x="226" y="755" type="line"/>
      <point x="172" y="755" type="line"/>
      <point x="158" y="742"/>
      <point x="111" y="725"/>
      <point x="18" y="725" type="curve"/>
      <point x="18" y="649" type="line"/>
      <point x="32" y="650"/>
      <point x="67" y="651"/>
      <point x="88" y="652" type="curve"/>
      <point x="85" y="623"/>
      <point x="84" y="589"/>
      <point x="84" y="565" type="curve" smooth="yes"/>
      <point x="84" y="154" type="line" smooth="yes"/>
      <point x="84" y="101"/>
      <point x="81" y="65"/>
      <point x="25" y="65" type="curve"/>
      <point x="25" y="0" type="line"/>
      <point x="287" y="0" type="line"/>
      <point x="287" y="76" type="line"/>
      <point x="273" y="76"/>
      <point x="244" y="75"/>
      <point x="222" y="73" type="curve"/>
      <point x="225" y="103"/>
      <point x="226" y="142"/>
      <point x="226" y="161" type="curve" smooth="yes"/>
      <point x="226" y="387" type="line"/>
      <point x="248" y="407"/>
      <point x="284" y="424"/>
      <point x="317" y="424" type="curve" smooth="yes"/>
      <point x="373" y="424"/>
      <point x="398" y="383"/>
      <point x="398" y="296" type="curve" smooth="yes"/>
      <point x="399" y="154" type="line" smooth="yes"/>
      <point x="399" y="101"/>
      <point x="395" y="65"/>
      <point x="339" y="65" type="curve"/>
      <point x="339" y="0" type="line"/>
      <point x="493" y="0" type="line" smooth="yes"/>
      <point x="545" y="0"/>
      <point x="575" y="-49"/>
      <point x="574" y="-183" type="curve"/>
      <point x="639" y="-183" type="line"/>
      <point x="639" y="78" type="line"/>
    </contour>
  </outline>
</glyph>
<glyph name="EnLeftHook-cy" format="2">
  <advance width="807"/>
  <unicode hex="0528"/>
  <outline>
    <contour>
      <point x="70" y="-229" type="curve" smooth="yes"/>
      <point x="200" y="-229"/>
      <point x="266" y="-119"/>
      <point x="266" y="34" type="curve" smooth="yes"/>
      <point x="266" y="312" type="line"/>
      <point x="541" y="315" type="line"/>
      <point x="541" y="153" type="line" smooth="yes"/>
      <point x="541" y="72"/>
      <point x="515" y="68"/>
      <point x="470" y="66" type="curve"/>
      <point x="470" y="0" type="line"/>
      <point x="757" y="0" type="line"/>
      <point x="757" y="77" type="line"/>
      <point x="743" y="77"/>
      <point x="703" y="76"/>
      <point x="682" y="74" type="curve"/>
      <point x="684" y="91"/>
      <point x="686" y="128"/>
      <point x="686" y="164" type="curve" smooth="yes"/>
      <point x="686" y="547" type="line" smooth="yes"/>
      <point x="686" y="628"/>
      <point x="712" y="632"/>
      <point x="757" y="634" type="curve"/>
      <point x="757" y="700" type="line"/>
      <point x="470" y="700" type="line"/>
      <point x="470" y="623" type="line"/>
      <point x="484" y="624"/>
      <point x="523" y="625"/>
      <point x="545" y="626" type="curve"/>
      <point x="542" y="609"/>
      <point x="541" y="572"/>
      <point x="541" y="536" type="curve" smooth="yes"/>
      <point x="541" y="391" type="line"/>
      <point x="266" y="391" type="line"/>
      <point x="266" y="547" type="line" smooth="yes"/>
      <point x="266" y="628"/>
      <point x="292" y="632"/>
      <point x="337" y="634" type="curve"/>
      <point x="337" y="700" type="line"/>
      <point x="50" y="700" type="line"/>
      <point x="50" y="623" type="line"/>
      <point x="64" y="624"/>
      <point x="104" y="625"/>
      <point x="125" y="626" type="curve"/>
      <point x="123" y="609"/>
      <point x="121" y="572"/>
      <point x="121" y="536" type="curve" smooth="yes"/>
      <point x="121" y="24" type="line" smooth="yes"/>
      <point x="121" y="-113"/>
      <point x="69" y="-156"/>
      <point x="17" y="-156" type="curve" smooth="yes"/>
      <point x="-4" y="-156"/>
      <point x="-22" y="-155"/>
      <point x="-46" y="-149" type="curve"/>
      <point x="-62" y="-212" type="line"/>
      <point x="3" y="-229"/>
      <point x="43" y="-229"/>
    </contour>
  </outline>
</glyph>
<glyph name="uni1C81" format="2">
  <advance width="668"/>
  <unicode hex="1C81"/>
  <outline>
    <contour>
      <point x="22" y="-255" type="line"/>
      <point x="87" y="-255" type="line"/>
      <point x="86" y="-97"/>
      <point x="108" y="0"/>
      <point x="160" y="0" type="curve" smooth="yes"/>
      <point x="503" y="0" type="line" smooth="yes"/>
      <point x="556" y="0"/>
      <point x="578" y="-97"/>
      <point x="576" y="-255" type="curve"/>
      <point x="642" y="-255" type="line"/>
      <point x="642" y="78" type="line"/>
      <point x="538" y="74" type="line"/>
      <point x="541" y="104"/>
      <point x="542" y="142"/>
      <point x="542" y="161" type="curve" smooth="yes"/>
      <point x="542" y="346" type="line" smooth="yes"/>
      <point x="542" y="399"/>
      <point x="546" y="435"/>
      <point x="602" y="435" type="curve"/>
      <point x="602" y="500" type="line"/>
      <point x="106" y="500" type="line"/>
      <point x="106" y="424" type="line"/>
      <point x="201" y="432" type="line"/>
      <point x="196" y="343"/>
      <point x="174" y="194"/>
      <point x="144" y="132" type="curve" smooth="yes"/>
      <point x="127" y="98"/>
      <point x="104" y="78"/>
      <point x="73" y="78" type="curve" smooth="yes"/>
      <point x="22" y="78" type="line"/>
    </contour>
    <contour>
      <point x="188" y="78" type="line"/>
      <point x="203" y="100"/>
      <point x="215" y="125"/>
      <point x="226" y="152" type="curve" smooth="yes"/>
      <point x="253" y="219"/>
      <point x="255" y="241"/>
      <point x="272" y="380" type="curve" smooth="yes"/>
      <point x="277" y="413"/>
      <point x="293" y="422"/>
      <point x="325" y="422" type="curve" smooth="yes"/>
      <point x="404" y="422" type="line"/>
      <point x="401" y="394"/>
      <point x="400" y="359"/>
      <point x="400" y="340" type="curve" smooth="yes"/>
      <point x="400" y="167" type="line" smooth="yes"/>
      <point x="400" y="114"/>
      <point x="396" y="78"/>
      <point x="341" y="78" type="curve" smooth="yes"/>
    </contour>
  </outline>
</glyph>
<glyph name="Germandbls" format="2">
  <advance width="731"/>
  <unicode hex="1E9E"/>
  <guideline x="375" y="721" angle="90"/>
  <outline>
    <contour>
      <point x="449" y="-16" type="curve" smooth="yes"/>
      <point x="574" y="-19"/>
      <point x="701" y="66"/>
      <point x="701" y="213" type="curve" smooth="yes"/>
      <point x="701" y="312"/>
      <point x="635" y="423"/>
      <point x="504" y="418" type="curve"/>
      <point x="660" y="625" type="line"/>
      <point x="660" y="700" type="line"/>
      <point x="385" y="700" type="line" smooth="yes"/>
      <point x="235" y="700"/>
      <point x="102" y="635"/>
      <point x="102" y="430" type="curve" smooth="yes"/>
      <point x="102" y="154" type="line" smooth="yes"/>
      <point x="102" y="101"/>
      <point x="98" y="65"/>
      <point x="42" y="65" type="curve"/>
      <point x="42" y="0" type="line"/>
      <point x="240" y="0" type="line"/>
      <point x="243" y="30"/>
      <point x="244" y="144"/>
      <point x="244" y="163" type="curve" smooth="yes"/>
      <point x="244" y="437" type="line" smooth="yes"/>
      <point x="244" y="576"/>
      <point x="301" y="636"/>
      <point x="385" y="634" type="curve" smooth="yes"/>
      <point x="519" y="630" type="line"/>
      <point x="491" y="599"/>
      <point x="472" y="570"/>
      <point x="447" y="532" type="curve"/>
      <point x="347" y="393" type="line"/>
      <point x="347" y="358" type="line"/>
      <point x="414" y="358" type="line" smooth="yes"/>
      <point x="507" y="358"/>
      <point x="553" y="303"/>
      <point x="553" y="218" type="curve" smooth="yes"/>
      <point x="553" y="105"/>
      <point x="495" y="65"/>
      <point x="437" y="65" type="curve" smooth="yes"/>
      <point x="398" y="65"/>
      <point x="362" y="75"/>
      <point x="330" y="106" type="curve"/>
      <point x="281" y="64" type="line"/>
      <point x="331" y="8"/>
      <point x="380" y="-16"/>
    </contour>
  </outline>
</glyph>
<glyph name="emdash" format="2">
  <advance width="845"/>
  <unicode hex="2014"/>
  <outline>
    <contour>
      <point x="52" y="260" type="line"/>
      <point x="793" y="263" type="line"/>
      <point x="793" y="368" type="line"/>
      <point x="52" y="368" type="line"/>
    </contour>
  </outline>
</glyph>
<glyph name="bullet" format="2">
  <advance width="382"/>
  <unicode hex="2022"/>
  <outline>
    <contour>
      <point x="190" y="206" type="curve" smooth="yes"/>
      <point x="278" y="206"/>
      <point x="351" y="275"/>
      <point x="351" y="363" type="curve" smooth="yes"/>
      <point x="351" y="451"/>
      <point x="278" y="520"/>
      <point x="190" y="520" type="curve" smooth="yes"/>
      <point x="102" y="520"/>
      <point x="31" y="451"/>
      <point x="31" y="363" type="curve" smooth="yes"/>
      <point x="31" y="275"/>
      <point x="102" y="206"/>
    </contour>
  </outline>
</glyph>
<glyph name="foursuperior" format="2">
  <advance width="417"/>
  <unicode hex="2074"/>
  <outline>
    <contour>
      <point x="147" y="301" type="line"/>
      <point x="326" y="301" type="line"/>
      <point x="326" y="345" type="line"/>
      <point x="317" y="345"/>
      <point x="295" y="345"/>
      <point x="283" y="344" type="curve"/>
      <point x="284" y="357"/>
      <point x="285" y="378"/>
      <point x="285" y="401" type="curve"/>
      <point x="344" y="401" type="line"/>
      <point x="344" y="456" type="line"/>
      <point x="285" y="457" type="line"/>
      <point x="285" y="716" type="line"/>
      <point x="250" y="716" type="line"/>
      <point x="37" y="461" type="line"/>
      <point x="37" y="403" type="line"/>
      <point x="188" y="402" type="line"/>
      <point x="188" y="389" type="line" smooth="yes"/>
      <point x="188" y="343"/>
      <point x="173" y="340"/>
      <point x="147" y="339" type="curve"/>
    </contour>
    <contour>
      <point x="190" y="458" type="line"/>
      <point x="104" y="460" type="line"/>
      <point x="194" y="578" type="line"/>
    </contour>
  </outline>
</glyph>
<glyph name="tugrik" format="2">
  <advance width="650"/>
  <unicode hex="20AE"/>
  <outline>
    <contour>
      <point x="120" y="301" type="line"/>
      <point x="527" y="413" type="line"/>
      <point x="527" y="484" type="line"/>
      <point x="120" y="375" type="line"/>
    </contour>
    <contour>
      <point x="120" y="157" type="line"/>
      <point x="527" y="269" type="line"/>
      <point x="527" y="340" type="line"/>
      <point x="120" y="232" type="line"/>
    </contour>
    <component base="T"/>
  </outline>
</glyph>
<glyph name="hryvnia" format="2">
  <advance width="636"/>
  <unicode hex="20B4"/>
  <outline>
    <contour>
      <point x="301" y="-16" type="curve"/>
      <point x="472" y="-16"/>
      <point x="547" y="99"/>
      <point x="557" y="225" type="curve"/>
      <point x="491" y="225" type="line" smooth="yes"/>
      <point x="473" y="113"/>
      <point x="394" y="56"/>
      <point x="296" y="56" type="curve"/>
      <point x="229" y="56"/>
      <point x="186" y="81"/>
      <point x="186" y="150" type="curve" smooth="yes"/>
      <point x="186" y="216"/>
      <point x="225" y="266"/>
      <point x="360" y="339" type="curve"/>
      <point x="396" y="359"/>
      <point x="458" y="390"/>
      <point x="504" y="435" type="curve"/>
      <point x="504" y="438" type="line"/>
      <point x="536" y="470"/>
      <point x="563" y="508"/>
      <point x="563" y="561" type="curve"/>
      <point x="563" y="645"/>
      <point x="495" y="716"/>
      <point x="345" y="716" type="curve" smooth="yes"/>
      <point x="273" y="716"/>
      <point x="215" y="700"/>
      <point x="170" y="668" type="curve" smooth="yes"/>
      <point x="174" y="709" type="line"/>
      <point x="96" y="709" type="line"/>
      <point x="96" y="476" type="line"/>
      <point x="162" y="476" type="line" smooth="yes"/>
      <point x="179" y="587"/>
      <point x="263" y="646"/>
      <point x="341" y="644" type="curve" smooth="yes"/>
      <point x="388" y="642"/>
      <point x="433" y="618"/>
      <point x="433" y="556" type="curve"/>
      <point x="433" y="495"/>
      <point x="389" y="449"/>
      <point x="281" y="393" type="curve" smooth="yes"/>
      <point x="222" y="363"/>
      <point x="145" y="326"/>
      <point x="95" y="275" type="curve"/>
      <point x="95" y="271" type="line"/>
      <point x="71" y="243"/>
      <point x="53" y="209"/>
      <point x="53" y="166" type="curve" smooth="yes"/>
      <point x="53" y="57"/>
      <point x="169" y="-16"/>
    </contour>
    <contour>
      <point x="34" y="274" type="line"/>
      <point x="565" y="276" type="line"/>
      <point x="565" y="329" type="line"/>
      <point x="34" y="331" type="line"/>
    </contour>
    <contour>
      <point x="34" y="380" type="line"/>
      <point x="565" y="382" type="line"/>
      <point x="565" y="435" type="line"/>
      <point x="34" y="436" type="line"/>
    </contour>
  </outline>
</glyph>
<glyph name="radical" format="2">
  <advance width="844"/>
  <unicode hex="221A"/>
  <outline>
    <contour>
      <point x="281" y="-2" type="line"/>
      <point x="366" y="-2" type="line"/>
      <point x="616" y="789" type="line"/>
      <point x="864" y="786" type="line"/>
      <point x="864" y="862" type="line"/>
      <point x="559" y="862" type="line"/>
      <point x="399" y="349" type="line" smooth="yes"/>
      <point x="376" y="274"/>
      <point x="355" y="206"/>
      <point x="345" y="163" type="curve"/>
      <point x="336" y="204"/>
      <point x="317" y="262"/>
      <point x="299" y="309" type="curve" smooth="yes"/>
      <point x="224" y="500" type="line"/>
      <point x="-3" y="500" type="line"/>
      <point x="-3" y="430" type="line"/>
      <point x="111" y="427" type="line"/>
      <point x="114" y="413"/>
      <point x="117" y="396"/>
      <point x="132" y="359" type="curve" smooth="yes"/>
    </contour>
  </outline>
</glyph>
<glyph name="integral" format="2">
  <advance width="417"/>
  <unicode hex="222B"/>
  <outline>
    <contour>
      <point x="104" y="-271" type="curve" smooth="yes"/>
      <point x="226" y="-271"/>
      <point x="278" y="-168"/>
      <point x="276" y="-40" type="curve" smooth="yes"/>
      <point x="266" y="608" type="line" smooth="yes"/>
      <point x="265" y="660"/>
      <point x="282" y="678"/>
      <point x="297" y="678" type="curve" smooth="yes"/>
      <point x="300" y="678"/>
      <point x="303" y="677"/>
      <point x="306" y="676" type="curve"/>
      <point x="304" y="670"/>
      <point x="303" y="665"/>
      <point x="303" y="661" type="curve" smooth="yes"/>
      <point x="303" y="636"/>
      <point x="317" y="601"/>
      <point x="363" y="602" type="curve" smooth="yes"/>
      <point x="400" y="604"/>
      <point x="424" y="635"/>
      <point x="424" y="671" type="curve" smooth="yes"/>
      <point x="424" y="728"/>
      <point x="373" y="760"/>
      <point x="315" y="760" type="curve" smooth="yes"/>
      <point x="189" y="763"/>
      <point x="137" y="654"/>
      <point x="139" y="528" type="curve" smooth="yes"/>
      <point x="150" y="-109" type="line" smooth="yes"/>
      <point x="151" y="-151"/>
      <point x="148" y="-188"/>
      <point x="123" y="-188" type="curve" smooth="yes"/>
      <point x="120" y="-188"/>
      <point x="117" y="-188"/>
      <point x="114" y="-187" type="curve"/>
      <point x="115" y="-181"/>
      <point x="116" y="-177"/>
      <point x="116" y="-173" type="curve" smooth="yes"/>
      <point x="116" y="-148"/>
      <point x="102" y="-112"/>
      <point x="56" y="-114" type="curve" smooth="yes"/>
      <point x="19" y="-115"/>
      <point x="-5" y="-147"/>
      <point x="-5" y="-183" type="curve" smooth="yes"/>
      <point x="-5" y="-239"/>
      <point x="46" y="-271"/>
    </contour>
  </outline>
</glyph>
<glyph name="approxequal" format="2">
  <advance width="530"/>
  <unicode hex="2248"/>
  <outline>
    <contour>
      <point x="368" y="328" type="curve" smooth="yes"/>
      <point x="420" y="328"/>
      <point x="459" y="347"/>
      <point x="487" y="372" type="curve"/>
      <point x="487" y="461" type="line"/>
      <point x="453" y="435"/>
      <point x="408" y="418"/>
      <point x="360" y="421" type="curve" smooth="yes"/>
      <point x="289" y="425"/>
      <point x="272" y="484"/>
      <point x="170" y="484" type="curve" smooth="yes"/>
      <point x="117" y="484"/>
      <point x="85" y="469"/>
      <point x="43" y="440" type="curve"/>
      <point x="43" y="351" type="line"/>
      <point x="79" y="373"/>
      <point x="111" y="391"/>
      <point x="166" y="391" type="curve" smooth="yes"/>
      <point x="246" y="391"/>
      <point x="268" y="328"/>
    </contour>
    <contour>
      <point x="368" y="133" type="curve" smooth="yes"/>
      <point x="420" y="133"/>
      <point x="459" y="151"/>
      <point x="487" y="177" type="curve"/>
      <point x="487" y="265" type="line"/>
      <point x="453" y="239"/>
      <point x="408" y="223"/>
      <point x="360" y="226" type="curve" smooth="yes"/>
      <point x="289" y="230"/>
      <point x="272" y="289"/>
      <point x="170" y="289" type="curve" smooth="yes"/>
      <point x="117" y="289"/>
      <point x="85" y="273"/>
      <point x="43" y="244" type="curve"/>
      <point x="43" y="155" type="line"/>
      <point x="79" y="177"/>
      <point x="111" y="196"/>
      <point x="166" y="196" type="curve" smooth="yes"/>
      <point x="246" y="196"/>
      <point x="268" y="133"/>
    </contour>
  </outline>
</glyph>
<glyph name="lessequal" format="2">
  <advance width="530"/>
  <unicode hex="2264"/>
  <guideline x="40" y="43" angle="90"/>
  <outline>
    <contour>
      <point x="40" y="0" type="line"/>
      <point x="490" y="0" type="line"/>
      <point x="490" y="90" type="line"/>
      <point x="40" y="85" type="line"/>
    </contour>
    <component base="less" yOffset="48"/>
  </outline>
</glyph>
<glyph name="El-cy.loclBGR" format="2">
  <advance width="668"/>
  <outline>
    <contour>
      <point x="4" y="0" type="line"/>
      <point x="218" y="0" type="line"/>
      <point x="218" y="80" type="line"/>
      <point x="147" y="77" type="line"/>
      <point x="158" y="100"/>
      <point x="173" y="140"/>
      <point x="179" y="158" type="curve" smooth="yes"/>
      <point x="301" y="534" type="line"/>
      <point x="432" y="154" type="line" smooth="yes"/>
      <point x="450" y="103"/>
      <point x="450" y="66"/>
      <point x="395" y="66" type="curve"/>
      <point x="395" y="0" type="line"/>
      <point x="664" y="0" type="line"/>
      <point x="664" y="77" type="line"/>
      <point x="606" y="74" type="line"/>
      <point x="603" y="104"/>
      <point x="586" y="153"/>
      <point x="578" y="173" type="curve" smooth="yes"/>
      <point x="363" y="718" type="line"/>
      <point x="293" y="718" type="line"/>
      <point x="100" y="183" type="line" smooth="yes"/>
      <point x="78" y="123"/>
      <point x="60" y="69"/>
      <point x="4" y="69" type="curve"/>
    </contour>
  </outline>
</glyph>
<glyph name="Zedescender-cy.loclBSH" format="2">
  <advance width="649"/>
  <outline>
    <contour>
      <point x="327" y="-212" type="curve" smooth="yes"/>
      <point x="368" y="-212"/>
      <point x="413" y="-183"/>
      <point x="413" y="-129" type="curve" smooth="yes"/>
      <point x="413" y="-64"/>
      <point x="364" y="-7"/>
      <point x="303" y="30" type="curve"/>
      <point x="218" y="21" type="line"/>
      <point x="277" y="2"/>
      <point x="323" y="-28"/>
      <point x="334" y="-81" type="curve"/>
      <point x="326" y="-79"/>
      <point x="316" y="-77"/>
      <point x="305" y="-77" type="curve" smooth="yes"/>
      <point x="290" y="-77"/>
      <point x="247" y="-90"/>
      <point x="247" y="-148" type="curve" smooth="yes"/>
      <point x="247" y="-183"/>
      <point x="280" y="-212"/>
    </contour>
    <component base="Ze-cy"/>
  </outline>
</glyph>
<glyph name="brevecomb_gravecomb.case" format="2">
  <outline>
    <contour>
      <point x="206" y="600" type="curve" smooth="yes"/>
      <point x="274" y="600"/>
      <point x="331" y="638"/>
      <point x="366" y="735" type="curve"/>
      <point x="301" y="764" type="line"/>
      <point x="282" y="727"/>
      <point x="256" y="692"/>
      <point x="210" y="692" type="curve" smooth="yes"/>
      <point x="163" y="692"/>
      <point x="136" y="726"/>
      <point x="115" y="763" type="curve"/>
      <point x="50" y="730" type="line"/>
      <point x="81" y="634"/>
      <point x="150" y="600"/>
    </contour>
    <contour>
      <point x="209" y="757" type="line"/>
      <point x="255" y="798" type="line"/>
      <point x="173" y="938" type="line" smooth="yes"/>
      <point x="152" y="971"/>
      <point x="111" y="987"/>
      <point x="80" y="962" type="curve" smooth="yes"/>
      <point x="48" y="933"/>
      <point x="61" y="888"/>
      <point x="88" y="863" type="curve" smooth="yes"/>
    </contour>
  </outline>
</glyph>
<glyph name="brevecomb_gravecomb" format="2">
  <anchor x="208" y="500" name="_top"/>
  <outline>
    <contour>
      <point x="209" y="707" type="line"/>
      <point x="255" y="748" type="line"/>
      <point x="173" y="888" type="line" smooth="yes"/>
      <point x="152" y="921"/>
      <point x="111" y="937"/>
      <point x="80" y="912" type="curve" smooth="yes"/>
      <point x="48" y="883"/>
      <point x="61" y="838"/>
      <point x="88" y="813" type="curve" smooth="yes"/>
    </contour>
    <contour>
      <point x="206" y="550" type="curve" smooth="yes"/>
      <point x="274" y="550"/>
      <point x="331" y="588"/>
      <point x="366" y="685" type="curve"/>
      <point x="301" y="714" type="line"/>
      <point x="282" y="677"/>
      <point x="256" y="642"/>
      <point x="210" y="642" type="curve" smooth="yes"/>
      <point x="163" y="642"/>
      <point x="136" y="676"/>
      <point x="115" y="713" type="curve"/>
      <point x="50" y="680" type="line"/>
      <point x="81" y="584"/>
      <point x="150" y="550"/>
    </contour>
  </outline>
</glyph>
<glyph name="brevecomb_hookabovecomb.case" format="2">
  <outline>
    <contour>
      <point x="206" y="600" type="curve" smooth="yes"/>
      <point x="274" y="600"/>
      <point x="331" y="638"/>
      <point x="366" y="735" type="curve"/>
      <point x="301" y="764" type="line"/>
      <point x="282" y="727"/>
      <point x="256" y="692"/>
      <point x="210" y="692" type="curve" smooth="yes"/>
      <point x="163" y="692"/>
      <point x="136" y="726"/>
      <point x="115" y="763" type="curve"/>
      <point x="50" y="730" type="line"/>
      <point x="81" y="634"/>
      <point x="150" y="600"/>
    </contour>
    <contour>
      <point x="182" y="780" type="curve"/>
      <point x="244" y="780" type="line"/>
      <point x="244" y="792"/>
      <point x="255" y="806"/>
      <point x="271" y="819" type="curve" smooth="yes"/>
      <point x="290" y="835"/>
      <point x="313" y="849"/>
      <point x="313" y="885" type="curve" smooth="yes"/>
      <point x="313" y="942"/>
      <point x="267" y="978"/>
      <point x="188" y="978" type="curve" smooth="yes"/>
      <point x="117" y="978"/>
      <point x="76" y="929"/>
      <point x="76" y="884" type="curve" smooth="yes"/>
      <point x="76" y="856"/>
      <point x="97" y="833"/>
      <point x="128" y="833" type="curve" smooth="yes"/>
      <point x="151" y="833"/>
      <point x="163" y="849"/>
      <point x="163" y="864" type="curve" smooth="yes"/>
      <point x="163" y="878"/>
      <point x="153" y="891"/>
      <point x="133" y="891" type="curve"/>
      <point x="135" y="900"/>
      <point x="150" y="918"/>
      <point x="188" y="918" type="curve" smooth="yes"/>
      <point x="216" y="918"/>
      <point x="238" y="904"/>
      <point x="238" y="876" type="curve" smooth="yes"/>
      <point x="238" y="859"/>
      <point x="230" y="847"/>
      <point x="221" y="837" type="curve" smooth="yes"/>
      <point x="205" y="819"/>
      <point x="182" y="808"/>
    </contour>
  </outline>
</glyph>
<glyph name="brevecomb_hookabovecomb" format="2">
  <anchor x="208" y="500" name="_top"/>
  <anchor x="208" y="916" name="top"/>
  <outline>
    <contour>
      <point x="206" y="551" type="curve" smooth="yes"/>
      <point x="274" y="551"/>
      <point x="331" y="589"/>
      <point x="366" y="686" type="curve"/>
      <point x="301" y="715" type="line"/>
      <point x="282" y="678"/>
      <point x="256" y="643"/>
      <point x="210" y="643" type="curve" smooth="yes"/>
      <point x="163" y="643"/>
      <point x="136" y="677"/>
      <point x="115" y="714" type="curve"/>
      <point x="50" y="681" type="line"/>
      <point x="81" y="585"/>
      <point x="150" y="551"/>
    </contour>
    <contour>
      <point x="181" y="711" type="curve"/>
      <point x="243" y="711" type="line"/>
      <point x="243" y="723"/>
      <point x="254" y="737"/>
      <point x="270" y="750" type="curve" smooth="yes"/>
      <point x="289" y="766"/>
      <point x="312" y="780"/>
      <point x="312" y="816" type="curve" smooth="yes"/>
      <point x="312" y="873"/>
      <point x="266" y="909"/>
      <point x="187" y="909" type="curve" smooth="yes"/>
      <point x="116" y="909"/>
      <point x="75" y="860"/>
      <point x="75" y="815" type="curve" smooth="yes"/>
      <point x="75" y="787"/>
      <point x="96" y="764"/>
      <point x="127" y="764" type="curve" smooth="yes"/>
      <point x="150" y="764"/>
      <point x="162" y="780"/>
      <point x="162" y="795" type="curve" smooth="yes"/>
      <point x="162" y="809"/>
      <point x="152" y="822"/>
      <point x="132" y="822" type="curve"/>
      <point x="134" y="831"/>
      <point x="149" y="849"/>
      <point x="187" y="849" type="curve" smooth="yes"/>
      <point x="215" y="849"/>
      <point x="237" y="835"/>
      <point x="237" y="807" type="curve" smooth="yes"/>
      <point x="237" y="790"/>
      <point x="229" y="778"/>
      <point x="220" y="768" type="curve" smooth="yes"/>
      <point x="204" y="750"/>
      <point x="181" y="739"/>
    </contour>
  </outline>
</glyph>
<glyph name="brevecomb_tildecomb" format="2">
  <anchor x="229" y="500" name="_top"/>
  <anchor x="229" y="893" name="top"/>
  <outline>
    <contour>
      <point x="213" y="551" type="curve" smooth="yes"/>
      <point x="281" y="551"/>
      <point x="338" y="589"/>
      <point x="373" y="686" type="curve"/>
      <point x="308" y="715" type="line"/>
      <point x="289" y="678"/>
      <point x="263" y="643"/>
      <point x="217" y="643" type="curve" smooth="yes"/>
      <point x="170" y="643"/>
      <point x="143" y="677"/>
      <point x="122" y="714" type="curve"/>
      <point x="57" y="681" type="line"/>
      <point x="88" y="585"/>
      <point x="157" y="551"/>
    </contour>
    <contour>
      <point x="408" y="864" type="curve"/>
      <point x="351" y="893" type="line"/>
      <point x="334" y="862"/>
      <point x="312" y="843"/>
      <point x="289" y="843" type="curve" smooth="yes"/>
      <point x="241" y="843"/>
      <point x="229" y="881"/>
      <point x="167" y="881" type="curve" smooth="yes"/>
      <point x="122" y="881"/>
      <point x="72" y="839"/>
      <point x="50" y="778" type="curve"/>
      <point x="106" y="745" type="line"/>
      <point x="126" y="777"/>
      <point x="152" y="786"/>
      <point x="168" y="786" type="curve" smooth="yes"/>
      <point x="208" y="786"/>
      <point x="235" y="747"/>
      <point x="289" y="747" type="curve" smooth="yes"/>
      <point x="329" y="747"/>
      <point x="380" y="781"/>
    </contour>
  </outline>
</glyph>
<glyph name="caroncomb.alt" format="2">
  <anchor x="79" y="500" name="_top"/>
  <outline>
    <contour>
      <point x="162" y="543" type="line"/>
      <point x="207" y="587"/>
      <point x="247" y="645"/>
      <point x="252" y="701" type="curve" smooth="yes"/>
      <point x="255" y="727"/>
      <point x="252" y="742"/>
      <point x="239" y="768" type="curve"/>
      <point x="150" y="785" type="line"/>
      <point x="167" y="721"/>
      <point x="172" y="662"/>
      <point x="123" y="572" type="curve"/>
    </contour>
  </outline>
</glyph>
<glyph name="circumflexcomb.case.i" format="2">
  <anchor x="254" y="700" name="_top"/>
  <anchor x="258" y="971" name="top"/>
  <outline>
    <contour>
      <point x="394" y="774" type="line"/>
      <point x="426" y="821" type="line"/>
      <point x="269" y="971" type="line"/>
      <point x="250" y="971" type="line"/>
      <point x="85" y="821" type="line"/>
      <point x="112" y="776" type="line"/>
      <point x="255" y="861" type="line"/>
    </contour>
  </outline>
</glyph>
<glyph name="circumflexcomb.i" format="2">
  <anchor x="220" y="500" name="_top"/>
  <anchor x="220" y="783" name="top"/>
  <outline>
    <contour>
      <point x="216" y="783" type="line"/>
      <point x="64" y="617" type="line"/>
      <point x="106" y="569" type="line"/>
      <point x="216" y="662" type="line"/>
      <point x="217" y="662" type="line"/>
      <point x="324" y="562" type="line"/>
      <point x="367" y="613" type="line"/>
      <point x="226" y="783" type="line"/>
    </contour>
  </outline>
</glyph>
<glyph name="circumflexcomb_acutecomb" format="2">
  <outline>
    <contour>
      <point x="335.602" y="549.634" type="line"/>
      <point x="362.046" y="588.474" type="line"/>
      <point x="232.302" y="712.434" type="line"/>
      <point x="216.6" y="712.434" type="line"/>
      <point x="80.244" y="588.474" type="line"/>
      <point x="102.557" y="551.286" type="line"/>
      <point x="220.732" y="621.53" type="line"/>
    </contour>
    <contour>
      <point x="395" y="638" type="line"/>
      <point x="516" y="744" type="line" smooth="yes"/>
      <point x="543" y="769"/>
      <point x="556" y="814"/>
      <point x="525" y="843" type="curve" smooth="yes"/>
      <point x="493" y="868"/>
      <point x="452" y="852"/>
      <point x="431" y="819" type="curve" smooth="yes"/>
      <point x="349" y="679" type="line"/>
    </contour>
  </outline>
</glyph>
<glyph name="circumflexcomb_hookabovecomb" format="2">
  <outline>
    <contour>
      <point x="375.602" y="550.634" type="line"/>
      <point x="402.046" y="589.474" type="line"/>
      <point x="272.302" y="713.434" type="line"/>
      <point x="256.6" y="713.434" type="line"/>
      <point x="120.244" y="589.474" type="line"/>
      <point x="142.557" y="552.286" type="line"/>
      <point x="260.732" y="622.53" type="line"/>
    </contour>
    <contour>
      <point x="373" y="691" type="curve"/>
      <point x="435" y="691" type="line"/>
      <point x="435" y="703"/>
      <point x="446" y="717"/>
      <point x="462" y="730" type="curve" smooth="yes"/>
      <point x="481" y="746"/>
      <point x="504" y="760"/>
      <point x="504" y="796" type="curve" smooth="yes"/>
      <point x="504" y="853"/>
      <point x="458" y="889"/>
      <point x="379" y="889" type="curve" smooth="yes"/>
      <point x="308" y="889"/>
      <point x="267" y="840"/>
      <point x="267" y="795" type="curve" smooth="yes"/>
      <point x="267" y="767"/>
      <point x="288" y="744"/>
      <point x="319" y="744" type="curve" smooth="yes"/>
      <point x="342" y="744"/>
      <point x="354" y="760"/>
      <point x="354" y="775" type="curve" smooth="yes"/>
      <point x="354" y="789"/>
      <point x="344" y="802"/>
      <point x="324" y="802" type="curve"/>
      <point x="326" y="811"/>
      <point x="341" y="829"/>
      <point x="379" y="829" type="curve" smooth="yes"/>
      <point x="407" y="829"/>
      <point x="429" y="815"/>
      <point x="429" y="787" type="curve" smooth="yes"/>
      <point x="429" y="770"/>
      <point x="421" y="758"/>
      <point x="412" y="748" type="curve" smooth="yes"/>
      <point x="396" y="730"/>
      <point x="373" y="719"/>
    </contour>
  </outline>
</glyph>
<glyph name="circumflexcomb_tildecomb" format="2">
  <outline>
    <contour>
      <point x="413.602" y="548.634" type="line"/>
      <point x="440.046" y="587.474" type="line"/>
      <point x="310.302" y="711.434" type="line"/>
      <point x="294.6" y="711.434" type="line"/>
      <point x="158.244" y="587.474" type="line"/>
      <point x="180.557" y="550.286" type="line"/>
      <point x="298.732" y="620.53" type="line"/>
    </contour>
    <contour>
      <point x="502" y="843" type="curve"/>
      <point x="445" y="872" type="line"/>
      <point x="428" y="841"/>
      <point x="406" y="822"/>
      <point x="383" y="822" type="curve" smooth="yes"/>
      <point x="335" y="822"/>
      <point x="323" y="860"/>
      <point x="261" y="860" type="curve" smooth="yes"/>
      <point x="216" y="860"/>
      <point x="166" y="818"/>
      <point x="144" y="757" type="curve"/>
      <point x="200" y="724" type="line"/>
      <point x="220" y="756"/>
      <point x="246" y="765"/>
      <point x="262" y="765" type="curve" smooth="yes"/>
      <point x="302" y="765"/>
      <point x="329" y="726"/>
      <point x="383" y="726" type="curve" smooth="yes"/>
      <point x="423" y="726"/>
      <point x="474" y="760"/>
    </contour>
  </outline>
</glyph>
<glyph name="de-cy.loclBGR" format="2">
  <advance width="581"/>
  <outline>
    <contour>
      <point x="273" y="-271" type="curve" smooth="yes"/>
      <point x="419" y="-271"/>
      <point x="511" y="-181"/>
      <point x="511" y="-34" type="curve" smooth="yes"/>
      <point x="511" y="510" type="line"/>
      <point x="457" y="510" type="line"/>
      <point x="449" y="500"/>
      <point x="432" y="494"/>
      <point x="422" y="494" type="curve" smooth="yes"/>
      <point x="396" y="494"/>
      <point x="356" y="516"/>
      <point x="282" y="516" type="curve" smooth="yes"/>
      <point x="131" y="516"/>
      <point x="32" y="398"/>
      <point x="32" y="237" type="curve" smooth="yes"/>
      <point x="32" y="83"/>
      <point x="114" y="-16"/>
      <point x="234" y="-16" type="curve" smooth="yes"/>
      <point x="281" y="-16"/>
      <point x="327" y="-1"/>
      <point x="370" y="40" type="curve"/>
      <point x="370" y="-51" type="line" smooth="yes"/>
      <point x="370" y="-146"/>
      <point x="337" y="-198"/>
      <point x="253" y="-198" type="curve" smooth="yes"/>
      <point x="218" y="-198"/>
      <point x="180" y="-187"/>
      <point x="169" y="-160" type="curve"/>
      <point x="181" y="-146"/>
      <point x="188" y="-127"/>
      <point x="188" y="-114" type="curve" smooth="yes"/>
      <point x="188" y="-88"/>
      <point x="173" y="-49"/>
      <point x="123" y="-50" type="curve" smooth="yes"/>
      <point x="79" y="-51"/>
      <point x="56" y="-86"/>
      <point x="56" y="-126" type="curve" smooth="yes"/>
      <point x="56" y="-199"/>
      <point x="125" y="-271"/>
    </contour>
    <contour>
      <point x="286" y="74" type="curve" smooth="yes"/>
      <point x="209" y="74"/>
      <point x="180" y="167"/>
      <point x="179" y="252" type="curve" smooth="yes"/>
      <point x="177" y="346"/>
      <point x="204" y="442"/>
      <point x="292" y="443" type="curve" smooth="yes"/>
      <point x="325" y="443"/>
      <point x="369" y="430"/>
      <point x="369" y="355" type="curve" smooth="yes"/>
      <point x="369" y="121" type="line"/>
      <point x="352" y="93"/>
      <point x="319" y="74"/>
    </contour>
  </outline>
</glyph>
<glyph name="el-cy.loclBGR" format="2">
  <advance width="534"/>
  <outline>
    <contour>
      <point x="3" y="0" type="line"/>
      <point x="191" y="0" type="line"/>
      <point x="191" y="76" type="line"/>
      <point x="129" y="72" type="line"/>
      <point x="141" y="93"/>
      <point x="150" y="110"/>
      <point x="161" y="143" type="curve" smooth="yes"/>
      <point x="200" y="254" type="line"/>
      <point x="212" y="287"/>
      <point x="223" y="320"/>
      <point x="235" y="353" type="curve"/>
      <point x="248" y="320"/>
      <point x="261" y="287"/>
      <point x="274" y="254" type="curve"/>
      <point x="318" y="142" type="line" smooth="yes"/>
      <point x="333" y="103"/>
      <point x="336" y="66"/>
      <point x="294" y="64" type="curve"/>
      <point x="294" y="0" type="line"/>
      <point x="528" y="0" type="line"/>
      <point x="528" y="76" type="line"/>
      <point x="491" y="74" type="line"/>
      <point x="486" y="98"/>
      <point x="487" y="107"/>
      <point x="465" y="156" type="curve" smooth="yes"/>
      <point x="307" y="503" type="line"/>
      <point x="220" y="503" type="line"/>
      <point x="93" y="184" type="line" smooth="yes"/>
      <point x="77" y="144"/>
      <point x="48" y="72"/>
      <point x="3" y="64" type="curve"/>
    </contour>
  </outline>
</glyph>
<glyph name="euro.tf" format="2">
  <advance width="650"/>
  <outline>
    <contour>
      <point x="382" y="-16" type="curve" smooth="yes"/>
      <point x="455" y="-16"/>
      <point x="570" y="7"/>
      <point x="664" y="144" type="curve"/>
      <point x="616" y="188" type="line"/>
      <point x="564" y="111"/>
      <point x="481" y="65"/>
      <point x="404" y="65" type="curve" smooth="yes"/>
      <point x="311" y="65"/>
      <point x="250" y="125"/>
      <point x="224" y="232" type="curve"/>
      <point x="423" y="233" type="line"/>
      <point x="473" y="308" type="line"/>
      <point x="212" y="309" type="line"/>
      <point x="207" y="329"/>
      <point x="209" y="347"/>
      <point x="209" y="369" type="curve"/>
      <point x="480" y="370" type="line"/>
      <point x="527" y="445" type="line"/>
      <point x="219" y="446" type="line"/>
      <point x="240" y="554"/>
      <point x="299" y="644"/>
      <point x="402" y="644" type="curve" smooth="yes"/>
      <point x="482" y="644"/>
      <point x="528" y="588"/>
      <point x="526" y="490" type="curve"/>
      <point x="593" y="490" type="line"/>
      <point x="615" y="709" type="line"/>
      <point x="541" y="709" type="line"/>
      <point x="538" y="667" type="line"/>
      <point x="490" y="702"/>
      <point x="432" y="716"/>
      <point x="388" y="716" type="curve" smooth="yes"/>
      <point x="212" y="716"/>
      <point x="111" y="590"/>
      <point x="79" y="446" type="curve"/>
      <point x="2" y="446" type="line"/>
      <point x="-15" y="368" type="line"/>
      <point x="67" y="368" type="line"/>
      <point x="68" y="349"/>
      <point x="67" y="329"/>
      <point x="69" y="309" type="curve"/>
      <point x="2" y="310" type="line"/>
      <point x="-15" y="231" type="line"/>
      <point x="81" y="232" type="line"/>
      <point x="119" y="87"/>
      <point x="229" y="-16"/>
    </contour>
  </outline>
</glyph>
<glyph name="hungarumlautcomb.case" format="2">
  <anchor x="146" y="700" name="_top"/>
  <outline>
    <contour>
      <point x="221" y="746" type="line"/>
      <point x="362" y="823" type="line" smooth="yes"/>
      <point x="395" y="842"/>
      <point x="429" y="877"/>
      <point x="407" y="910" type="curve" smooth="yes"/>
      <point x="387" y="943"/>
      <point x="339" y="932"/>
      <point x="302" y="899" type="curve" smooth="yes"/>
      <point x="189" y="797" type="line"/>
    </contour>
    <contour>
      <point x="75" y="747" type="line"/>
      <point x="192" y="854" type="line" smooth="yes"/>
      <point x="219" y="879"/>
      <point x="239" y="922"/>
      <point x="209" y="949" type="curve" smooth="yes"/>
      <point x="181" y="972"/>
      <point x="140" y="949"/>
      <point x="115" y="913" type="curve" smooth="yes"/>
      <point x="30" y="788" type="line"/>
    </contour>
  </outline>
</glyph>
<glyph name="numbersign.tf" format="2">
  <advance width="650"/>
  <outline>
    <contour>
      <point x="88" y="-16" type="line"/>
      <point x="191" y="-16" type="line"/>
      <point x="224" y="154" type="line"/>
      <point x="367" y="154" type="line"/>
      <point x="331" y="-16" type="line"/>
      <point x="434" y="-16" type="line"/>
      <point x="469" y="154" type="line"/>
      <point x="574" y="154" type="line"/>
      <point x="594" y="243" type="line"/>
      <point x="486" y="243" type="line"/>
      <point x="526" y="440" type="line"/>
      <point x="634" y="440" type="line"/>
      <point x="653" y="528" type="line"/>
      <point x="653" y="529" type="line"/>
      <point x="545" y="529" type="line"/>
      <point x="582" y="716" type="line"/>
      <point x="484" y="716" type="line"/>
      <point x="445" y="529" type="line"/>
      <point x="301" y="529" type="line"/>
      <point x="340" y="716" type="line"/>
      <point x="241" y="716" type="line"/>
      <point x="202" y="529" type="line"/>
      <point x="95" y="529" type="line"/>
      <point x="75" y="440" type="line"/>
      <point x="184" y="440" type="line"/>
      <point x="140" y="243" type="line"/>
      <point x="36" y="243" type="line"/>
      <point x="16" y="154" type="line"/>
      <point x="124" y="154" type="line"/>
    </contour>
    <contour>
      <point x="242" y="243" type="line"/>
      <point x="283" y="440" type="line"/>
      <point x="427" y="440" type="line"/>
      <point x="384" y="243" type="line"/>
    </contour>
  </outline>
</glyph>
<glyph name="ringcomb.case" format="2">
  <anchor x="177" y="700" name="_top"/>
  <anchor x="177" y="1006" name="top"/>
  <outline>
    <contour>
      <point x="178" y="751" type="curve" smooth="yes"/>
      <point x="242" y="751"/>
      <point x="313" y="801"/>
      <point x="311" y="885" type="curve" smooth="yes"/>
      <point x="307" y="968"/>
      <point x="238" y="1006"/>
      <point x="177" y="1006" type="curve" smooth="yes"/>
      <point x="111" y="1006"/>
      <point x="41" y="952"/>
      <point x="44" y="872" type="curve" smooth="yes"/>
      <point x="47" y="788"/>
      <point x="114" y="751"/>
    </contour>
    <contour>
      <point x="184" y="805" type="curve" smooth="yes"/>
      <point x="154" y="803"/>
      <point x="133" y="832"/>
      <point x="133" y="885" type="curve" smooth="yes"/>
      <point x="133" y="926"/>
      <point x="149" y="951"/>
      <point x="173" y="953" type="curve" smooth="yes"/>
      <point x="202" y="956"/>
      <point x="222" y="925"/>
      <point x="222" y="867" type="curve" smooth="yes"/>
      <point x="222" y="826"/>
      <point x="206" y="806"/>
    </contour>
  </outline>
</glyph>
<glyph name="softsign-cy.loclBGR" format="2">
  <advance width="548"/>
  <outline>
    <contour>
      <point x="301" y="-16" type="curve" smooth="yes"/>
      <point x="416" y="-16"/>
      <point x="506" y="36"/>
      <point x="506" y="150" type="curve" smooth="yes"/>
      <point x="506" y="244"/>
      <point x="460" y="310"/>
      <point x="271" y="304" type="curve" smooth="yes"/>
      <point x="255" y="303"/>
      <point x="240" y="303"/>
      <point x="224" y="302" type="curve"/>
      <point x="224" y="510" type="line"/>
      <point x="169" y="510" type="line"/>
      <point x="155" y="497"/>
      <point x="108" y="480"/>
      <point x="15" y="480" type="curve"/>
      <point x="15" y="404" type="line"/>
      <point x="29" y="405"/>
      <point x="64" y="406"/>
      <point x="85" y="407" type="curve"/>
      <point x="83" y="377"/>
      <point x="82" y="344"/>
      <point x="82" y="320" type="curve"/>
      <point x="82" y="158" type="line" smooth="yes"/>
      <point x="82" y="44"/>
      <point x="144" y="-16"/>
    </contour>
    <contour>
      <point x="303" y="53" type="curve" smooth="yes"/>
      <point x="262" y="52"/>
      <point x="224" y="80"/>
      <point x="224" y="145" type="curve" smooth="yes"/>
      <point x="224" y="241" type="line"/>
      <point x="241" y="242"/>
      <point x="264" y="242"/>
      <point x="287" y="242" type="curve" smooth="yes"/>
      <point x="338" y="242"/>
      <point x="372" y="211"/>
      <point x="371" y="145" type="curve" smooth="yes"/>
      <point x="370" y="93"/>
      <point x="350" y="54"/>
    </contour>
  </outline>
</glyph>
<glyph name="two.tf" format="2">
  <advance width="650"/>
  <outline>
    <contour>
      <point x="102" y="0" type="curve"/>
      <point x="560" y="0" type="line"/>
      <point x="568" y="163" type="line"/>
      <point x="504" y="163" type="line"/>
      <point x="504" y="107"/>
      <point x="474" y="96"/>
      <point x="429" y="98" type="curve" smooth="yes"/>
      <point x="213" y="103" type="line"/>
      <point x="219" y="129"/>
      <point x="251" y="182"/>
      <point x="325" y="242" type="curve" smooth="yes"/>
      <point x="506" y="390"/>
      <point x="545" y="459"/>
      <point x="545" y="527" type="curve" smooth="yes"/>
      <point x="545" y="667"/>
      <point x="428" y="716"/>
      <point x="321" y="716" type="curve" smooth="yes"/>
      <point x="180" y="716"/>
      <point x="103" y="620"/>
      <point x="103" y="560" type="curve" smooth="yes"/>
      <point x="103" y="521"/>
      <point x="126" y="489"/>
      <point x="167" y="487" type="curve" smooth="yes"/>
      <point x="216" y="486"/>
      <point x="235" y="528"/>
      <point x="235" y="551" type="curve" smooth="yes"/>
      <point x="235" y="565"/>
      <point x="230" y="588"/>
      <point x="215" y="603" type="curve"/>
      <point x="230" y="625"/>
      <point x="260" y="645"/>
      <point x="296" y="645" type="curve" smooth="yes"/>
      <point x="372" y="646"/>
      <point x="392" y="578"/>
      <point x="392" y="515" type="curve" smooth="yes"/>
      <point x="392" y="443"/>
      <point x="355" y="373"/>
      <point x="258" y="283" type="curve" smooth="yes"/>
      <point x="181" y="212"/>
      <point x="102" y="139"/>
    </contour>
  </outline>
</glyph>
<glyph name="ve-cy.loclBGR" format="2">
  <advance width="544"/>
  <outline>
    <contour>
      <point x="269" y="-16" type="curve" smooth="yes"/>
      <point x="406" y="-16"/>
      <point x="504" y="89"/>
      <point x="504" y="224" type="curve" smooth="yes"/>
      <point x="504" y="360"/>
      <point x="455" y="420"/>
      <point x="309" y="439" type="curve"/>
      <point x="389" y="439"/>
      <point x="450" y="514"/>
      <point x="450" y="596" type="curve" smooth="yes"/>
      <point x="450" y="700"/>
      <point x="369" y="760"/>
      <point x="266" y="760" type="curve" smooth="yes"/>
      <point x="140" y="760"/>
      <point x="52" y="672"/>
      <point x="51" y="488" type="curve" smooth="yes"/>
      <point x="50" y="214" type="line" smooth="yes"/>
      <point x="49" y="60"/>
      <point x="125" y="-16"/>
    </contour>
    <contour>
      <point x="267" y="57" type="curve" smooth="yes"/>
      <point x="208" y="57"/>
      <point x="195" y="115"/>
      <point x="195" y="205" type="curve" smooth="yes"/>
      <point x="195" y="574" type="line" smooth="yes"/>
      <point x="195" y="660"/>
      <point x="225" y="678"/>
      <point x="258" y="678" type="curve" smooth="yes"/>
      <point x="289" y="678"/>
      <point x="313" y="652"/>
      <point x="313" y="594" type="curve" smooth="yes"/>
      <point x="313" y="528"/>
      <point x="294" y="464"/>
      <point x="226" y="464" type="curve"/>
      <point x="224" y="464" type="line"/>
      <point x="223" y="385" type="line"/>
      <point x="224" y="385"/>
      <point x="225" y="385"/>
      <point x="226" y="385" type="curve"/>
      <point x="339" y="385"/>
      <point x="355" y="321"/>
      <point x="355" y="217" type="curve" smooth="yes"/>
      <point x="355" y="104"/>
      <point x="312" y="57"/>
    </contour>
  </outline>
</glyph>
